<?xml version="1.0" encoding="utf-8"?>
<!-- Generator: Adobe Illustrator 19.2.1, SVG Export Plug-In . SVG Version: 6.00 Build 0)  -->
<svg version="1.1" id="Layer_1" xmlns="http://www.w3.org/2000/svg" xmlns:xlink="http://www.w3.org/1999/xlink" x="0px" y="0px"
	 viewBox="0 0 512 512" style="enable-background:new 0 0 512 512;" xml:space="preserve">
<style type="text/css">
	.st0{fill:#F0F8FF;}
</style>
<path class="st0" d="M475.5,0l-110,0C345.4,0,329,16.4,329,36.5v103.4v24.5H183v-24.6V66V36.5C183,16.4,166.6,0,146.5,0l-110,0
	C16.4,0,0,16.4,0,36.5v103.4v232v103.5c0,20.1,16.4,36.5,36.5,36.5l110,0c20.1,0,36.5-16.4,36.5-36.5V460v-88.1v-24.4h146v24.5
	v103.5c0,20.1,16.4,36.5,36.5,36.5l110,0c20.1,0,36.5-16.4,36.5-36.5V460v-88.1v-232V66V36.5C512,16.4,495.6,0,475.5,0z"/>
</svg>
