<?xml version="1.0" encoding="utf-8"?>
<!-- Generator: Adobe Illustrator 19.2.1, SVG Export Plug-In . SVG Version: 6.00 Build 0)  -->
<svg version="1.1" id="Layer_1" xmlns="http://www.w3.org/2000/svg" xmlns:xlink="http://www.w3.org/1999/xlink" x="0px" y="0px"
	 viewBox="0 0 512 512" style="enable-background:new 0 0 512 512;" xml:space="preserve">
<style type="text/css">
	.st0{fill:#F0F8FF;}
</style>
<path class="st0" d="M372,183h13.9l29.5,0c20.1,0,36.5-16.4,36.5-36.5v-110c0-20.1-16.4-36.5-36.5-36.5L372,0h-61c0,0,0,0,0,0L201,0
	H140H96.5C76.4,0,60,16.4,60,36.5v110c0,20.1,16.4,36.5,36.5,36.5h15.4H140h24.4l0,145.9H140H96.5c-20.1,0-36.5,16.4-36.5,36.5v110
	c0,20.1,16.4,36.5,36.5,36.5h15.4H140h59.1c0.6,0,1.3,0,1.9,0l110,0c0.6,0,1.3,0,1.9,0H372h13.9h29.5c20.1,0,36.5-16.4,36.5-36.5
	v-110c0-20.1-16.4-36.5-36.5-36.5H372h-24.5l0-145.9H372z"/>
</svg>
