<?xml version="1.0" encoding="utf-8"?>
<!-- Generator: Adobe Illustrator 19.2.1, SVG Export Plug-In . SVG Version: 6.00 Build 0)  -->
<svg version="1.1" id="Capa_1" xmlns="http://www.w3.org/2000/svg" xmlns:xlink="http://www.w3.org/1999/xlink" x="0px" y="0px"
	 viewBox="0 0 47.1 47.1" style="enable-background:new 0 0 47.1 47.1;" xml:space="preserve">
<style type="text/css">
	.st0{fill:#F0F8FF;}
</style>
<path class="st0" d="M9.2,20.3h6.5c0.7,0,1.1-0.4,1.1-1.1s-0.4-1.1-1.1-1.1H9.2c-0.7,0-1.1,0.4-1.1,1.1C8.1,19.9,8.6,20.3,9.2,20.3z
	"/>
<path class="st0" d="M40.9,12.8c-0.5-0.6-1-1.2-1.3-1.8h0.2c1.7,0,3.1-1.4,3.1-3.1V3.1c0-1.7-1.4-3.1-3.1-3.1H24H8.2
	C6.5,0,5.1,1.4,5.1,3.1v4.8c0,1.7,1.4,3.1,3.1,3.1h0.2c-0.2,0.6-0.7,1.2-1.3,1.8c-1.3,1.5-3,3.5-3,7.6V35c0,6.7,5.4,12.1,12.1,12.1
	H24h7.9C38.6,47.1,44,41.7,44,35V20.4C43.9,16.3,42.2,14.3,40.9,12.8z M8.2,9C7.6,9,7.1,8.5,7.1,7.9V3.1C7.1,2.5,7.6,2,8.2,2H24
	h15.8c0.6,0,1.1,0.5,1.1,1.1v4.8c0,0.6-0.5,1.1-1.1,1.1H24H8.2z M15.7,37.8H9.2c-0.6,0-1.1-0.4-1.1-1.1c0-0.7,0.4-1.1,1.1-1.1h6.5
	c0.7,0,1.1,0.4,1.1,1.1C16.8,37.4,16.4,37.8,15.7,37.8z M8.1,32.3c0-0.7,0.4-1.1,1.1-1.1h3.3c0.7,0,1.1,0.4,1.1,1.1
	s-0.4,1.1-1.1,1.1H9.2C8.6,33.4,8.1,33,8.1,32.3z M15.7,29.1H9.2c-0.6,0-1.1-0.5-1.1-1.1c0-0.7,0.4-1.1,1.1-1.1h6.5
	c0.7,0,1.1,0.4,1.1,1.1C16.8,28.7,16.4,29.1,15.7,29.1z M25.3,27.2c-4-2.6-8.2-5.3-19.3-4.7v-2.1c0-3.4,1.3-4.9,2.5-6.3
	c0.7-0.8,1.4-1.6,1.7-2.7v-0.3H24h13.6v0.3c0.3,1.1,1,1.9,1.7,2.7c1.2,1.5,2.5,3,2.5,6.3l0.1,11C32.5,31.9,29,29.6,25.3,27.2z"/>
</svg>
