<?xml version="1.0" encoding="utf-8"?>
<!-- Generator: Adobe Illustrator 19.2.1, SVG Export Plug-In . SVG Version: 6.00 Build 0)  -->
<svg version="1.1" id="Layer_1" xmlns="http://www.w3.org/2000/svg" xmlns:xlink="http://www.w3.org/1999/xlink" x="0px" y="0px"
	 viewBox="0 0 512 512" style="enable-background:new 0 0 512 512;" xml:space="preserve">
<style type="text/css">
	.st0{fill:#F0F8FF;}
</style>
<g>
	<path class="st0" d="M204.8,119.5H256c5.1,0,8.5-3.4,8.5-8.5s-3.4-8.5-8.5-8.5h-51.2c-5.1,0-8.5,3.4-8.5,8.5
		S199.7,119.5,204.8,119.5z"/>
	<path class="st0" d="M204.8,153.6h25.6c5.1,0,8.5-3.4,8.5-8.5c0-5.1-3.4-8.5-8.5-8.5h-25.6c-5.1,0-8.5,3.4-8.5,8.5
		C196.3,150.2,199.7,153.6,204.8,153.6z"/>
	<path class="st0" d="M204.8,187.7H256c5.1,0,8.5-3.4,8.5-8.5c0-5.1-3.4-8.5-8.5-8.5h-51.2c-5.1,0-8.5,3.4-8.5,8.5
		C196.3,184.3,199.7,187.7,204.8,187.7z"/>
	<path class="st0" d="M204.8,221.9h25.6c5.1,0,8.5-3.4,8.5-8.5c0-5.1-3.4-8.5-8.5-8.5h-25.6c-5.1,0-8.5,3.4-8.5,8.5
		C196.3,218.5,199.7,221.9,204.8,221.9z"/>
	<path class="st0" d="M204.8,256H256c5.1,0,8.5-3.4,8.5-8.5c0-5.1-3.4-8.5-8.5-8.5h-51.2c-5.1,0-8.5,3.4-8.5,8.5
		C196.3,252.6,199.7,256,204.8,256z"/>
	<path class="st0" d="M341.4,0.1H170.7c-18.8,0-34.1,15.4-34.1,34.1c0,15.8,10.9,29.2,25.6,33v215.3v135.7
		c0,52.1,41.8,93.9,93.9,93.9c1.6,0,3.2,0,4.8-0.1c46-2.3,83.1-37.4,89-82.5v-87.9V148V67.2c14.7-3.8,25.6-17.2,25.6-33
		C375.5,15.4,360.1,0.1,341.4,0.1z M332.8,339.1c-32.3,10.9-70.5-12-96.4-37.9c-16-14.5-36.1-23.5-57.2-26.5V68.3h153.6V339.1z
		 M341.4,51.2H170.7c-9.4,0-17.1-7.7-17.1-17.1c0-9.4,7.7-17.1,17.1-17.1h170.7c9.4,0,17.1,7.7,17.1,17.1
		C358.5,43.5,350.8,51.2,341.4,51.2z"/>
</g>
</svg>
