<svg xmlns="http://www.w3.org/2000/svg" viewBox="0 0 106.93 36.98"><title>logo</title><path d="M214.35,161.44c2.8,0,5.6,0,8.39,0a6.81,6.81,0,0,1,5.81,2.83,7.49,7.49,0,0,1,1.33,3.73c0.2,4.27.18,8.55,0.16,12.83a7.05,7.05,0,0,1-7.1,6.87c-5.75.11-11.51,0.12-17.27,0a7.09,7.09,0,0,1-7.08-7.5c0-3.92.18-7.84,0.08-11.75a7,7,0,0,1,6.78-7c3,0,5.92,0,8.87,0v0Zm0.11,3.06h-6.71c-3.46.06-5.11,1.66-5.1,5.09s0.07,7,.14,10.55c0,2.24,1.14,3.92,3.33,4,5.5,0.21,11,.19,16.51,0,2-.07,3.2-1.77,3.25-3.83,0.08-3.68.15-7.35,0.16-11,0-3.13-1.58-4.71-4.73-4.76C219,164.47,216.73,164.5,214.45,164.5Z" transform="translate(-128.97 -161.25)" style="fill:#fff"/><path d="M194.31,184.23c-1.6,2-3,3.48-5.5,3.46-4.84,0-9.67,0-14.51,0-6.17,0-9.86-3.67-9.89-9.85,0-5.08.07-10.15,0.07-15.23,0-1,.32-1.28,1.29-0.92,1.66,0.62,2.14,1.24,2.15,3,0,4,0,8.07.07,12.11a14.68,14.68,0,0,0,.15,2c0.54,3.61,2.6,5.41,6.27,5.42,6.07,0,12.15,0,18.22,0h1.68Z" transform="translate(-128.97 -161.25)" style="fill:#fff"/><path d="M159.37,161.36c-0.26,2-1.23,2.89-3,2.89-3.92,0-7.84-.06-11.75,0A17.24,17.24,0,0,0,140,165a4.88,4.88,0,0,0-3.58,5.08q0,8.09,0,16.19c0,0.43,0,.86,0,1.31a5,5,0,0,1-3.9-4.47q0-6.47.1-12.95c0-4.26,2.07-7,6.22-8.12a20.56,20.56,0,0,1,5-.74c4.87-.1,9.75,0,14.63,0C158.76,161.27,159,161.32,159.37,161.36Z" transform="translate(-128.97 -161.25)" style="fill:#fff"/><path d="M142.6,175.61c-1.28,0-2.55,0-3.83,0a0.94,0.94,0,0,1-1.16-1.2,4.65,4.65,0,0,1,0-1.18,1.27,1.27,0,0,1,.79-0.76q4.13-.08,8.25,0a1.2,1.2,0,0,1,.79.84c0.24,2.28.21,2.28-2,2.28H142.6Z" transform="translate(-128.97 -161.25)" style="fill:#fff"/><path d="M134.7,193h-4.58v5.16H129v-5.73a0.59,0.59,0,0,1,.16-0.41,0.54,0.54,0,0,1,.18-0.12,0.59,0.59,0,0,1,.23,0h5.15V193Zm-0.51,2.58h-3.61v-1.15h3.61v1.15Z" transform="translate(-128.97 -161.25)" style="fill:#fff"/><path d="M142.19,195.59a2.76,2.76,0,0,1-.2,1.06,2.46,2.46,0,0,1-1.38,1.38,2.76,2.76,0,0,1-1,.2H138A2.78,2.78,0,0,1,137,198a2.49,2.49,0,0,1-.83-0.55,2.52,2.52,0,0,1-.55-0.84,2.73,2.73,0,0,1-.2-1.06v-1.2a2.74,2.74,0,0,1,.2-1.06,2.47,2.47,0,0,1,1.39-1.38,2.73,2.73,0,0,1,1.05-.2h1.55a2.71,2.71,0,0,1,1,.2,2.51,2.51,0,0,1,.83.55,2.47,2.47,0,0,1,.55.83,2.77,2.77,0,0,1,.2,1.06v1.2Zm-1.14-1.2a1.68,1.68,0,0,0-.11-0.61,1.33,1.33,0,0,0-.77-0.77,1.66,1.66,0,0,0-.6-0.11H138a1.66,1.66,0,0,0-.61.11,1.38,1.38,0,0,0-.47.3,1.34,1.34,0,0,0-.31.47,1.67,1.67,0,0,0-.11.61v1.2a1.67,1.67,0,0,0,.11.61,1.34,1.34,0,0,0,.31.47,1.38,1.38,0,0,0,.47.3,1.66,1.66,0,0,0,.61.11h1.54a1.66,1.66,0,0,0,.61-0.11,1.38,1.38,0,0,0,.47-0.3,1.34,1.34,0,0,0,.31-0.47,1.68,1.68,0,0,0,.11-0.61v-1.2Z" transform="translate(-128.97 -161.25)" style="fill:#fff"/><path d="M149,198.14h-4.12a1.73,1.73,0,0,1-.34,0,1.76,1.76,0,0,1-.36-0.12,1.63,1.63,0,0,1-.34-0.2,1.4,1.4,0,0,1-.29-0.3,1.53,1.53,0,0,1-.2-0.41,1.75,1.75,0,0,1-.07-0.53v-3.09a1.7,1.7,0,0,1,0-.34,1.73,1.73,0,0,1,.12-0.36,1.6,1.6,0,0,1,.21-0.34,1.43,1.43,0,0,1,.31-0.29,1.51,1.51,0,0,1,.41-0.2,1.72,1.72,0,0,1,.53-0.08H149V193h-4.12a0.47,0.47,0,0,0-.34.12,0.48,0.48,0,0,0-.12.35v3.09a0.42,0.42,0,0,0,.46.46H149v1.14Z" transform="translate(-128.97 -161.25)" style="fill:#fff"/><path d="M156.22,197.56a0.58,0.58,0,0,1,0,.23,0.54,0.54,0,0,1-.12.18,0.58,0.58,0,0,1-.41.17h-2.58a3.56,3.56,0,0,1-.74-0.08,3.27,3.27,0,0,1-.72-0.24,3.09,3.09,0,0,1-.66-0.42,2.76,2.76,0,0,1-.54-0.6,3,3,0,0,1-.36-0.8,3.57,3.57,0,0,1-.13-1v-3.15h1.14V195a2.19,2.19,0,0,0,.13.82,1.8,1.8,0,0,0,.34.56,1.64,1.64,0,0,0,.45.35,2.44,2.44,0,0,0,.47.19,2.19,2.19,0,0,0,.39.08l0.22,0h2v-5.16h1.14v5.73Z" transform="translate(-128.97 -161.25)" style="fill:#fff"/><path d="M163.6,196.28a2,2,0,0,1-.09.61,1.81,1.81,0,0,1-.23.48,1.47,1.47,0,0,1-.33.35,2,2,0,0,1-.8.37,1.91,1.91,0,0,1-.39,0h-4.41V197h4.41a0.67,0.67,0,0,0,.51-0.19,0.73,0.73,0,0,0,.18-0.52,0.84,0.84,0,0,0,0-.29,0.67,0.67,0,0,0-.14-0.23,0.61,0.61,0,0,0-.22-0.15,0.76,0.76,0,0,0-.29-0.05h-2.63a2.05,2.05,0,0,1-.6-0.1,1.8,1.8,0,0,1-.6-0.32,1.73,1.73,0,0,1-.46-0.58,2.16,2.16,0,0,1,0-1.74,1.76,1.76,0,0,1,1.05-.9,2.05,2.05,0,0,1,.6-0.1H163V193h-3.89a0.65,0.65,0,0,0-.51.2,0.74,0.74,0,0,0-.18.52,0.72,0.72,0,0,0,.18.52,0.67,0.67,0,0,0,.51.19h2.64a2,2,0,0,1,.39.05,1.94,1.94,0,0,1,.41.14,2,2,0,0,1,.39.24,1.63,1.63,0,0,1,.33.35,1.74,1.74,0,0,1,.23.47A2,2,0,0,1,163.6,196.28Z" transform="translate(-128.97 -161.25)" style="fill:#fff"/><path d="M170.25,198.14h-4.12a1.8,1.8,0,0,1-.52-0.08,1.5,1.5,0,0,1-.52-0.27,1.53,1.53,0,0,1-.4-0.5,1.59,1.59,0,0,1-.16-0.75v-4.12a0.59,0.59,0,0,1,.16-0.41,0.54,0.54,0,0,1,.18-0.12,0.59,0.59,0,0,1,.23,0h5.15V193h-4.58v3.56a0.46,0.46,0,0,0,.12.34,0.47,0.47,0,0,0,.35.12h4.11v1.14Zm-0.51-2.58h-3.61v-1.15h3.61v1.15Z" transform="translate(-128.97 -161.25)" style="fill:#fff"/><path d="M177.64,195.5a2.74,2.74,0,0,1-.2,1.06,2.5,2.5,0,0,1-.55.83,2.54,2.54,0,0,1-.83.55,2.77,2.77,0,0,1-1.05.2h-3.08a0.59,0.59,0,0,1-.23,0,0.55,0.55,0,0,1-.3-0.3,0.58,0.58,0,0,1,0-.23v-5.15a0.59,0.59,0,0,1,.16-0.41,0.54,0.54,0,0,1,.18-0.12,0.59,0.59,0,0,1,.23,0H175a2.73,2.73,0,0,1,1.05.2,2.47,2.47,0,0,1,1.39,1.38,2.75,2.75,0,0,1,.2,1.06v1Zm-1.14-1a1.68,1.68,0,0,0-.11-0.61,1.33,1.33,0,0,0-.31-0.47,1.38,1.38,0,0,0-.47-0.3A1.66,1.66,0,0,0,175,193h-2.52v4H175a1.66,1.66,0,0,0,.61-0.11,1.38,1.38,0,0,0,.47-0.3,1.34,1.34,0,0,0,.31-0.47,1.68,1.68,0,0,0,.11-0.61v-1Z" transform="translate(-128.97 -161.25)" style="fill:#fff"/><path d="M187.48,198.14h-5.21a0.59,0.59,0,0,1-.23,0,0.55,0.55,0,0,1-.3-0.3,0.58,0.58,0,0,1,0-.23v-5.73h1.14V197h4.64v1.14Z" transform="translate(-128.97 -161.25)" style="fill:#fff"/><path d="M194.5,198.14h-1.14v-1.55h-4v1.55H188.2V195a3.33,3.33,0,0,1,.24-1.27,3,3,0,0,1,.66-1,3,3,0,0,1,1-.65,3.31,3.31,0,0,1,1.26-.23h2.58a0.58,0.58,0,0,1,.22,0,0.57,0.57,0,0,1,.31.31,0.58,0.58,0,0,1,0,.22v5.73Zm-5.16-2.69h4V193h-2l-0.22,0a2.21,2.21,0,0,0-.39.08,2.4,2.4,0,0,0-.47.19,1.63,1.63,0,0,0-.45.35,1.81,1.81,0,0,0-.34.56,2.21,2.21,0,0,0-.13.82v0.46Z" transform="translate(-128.97 -161.25)" style="fill:#fff"/><path d="M202.11,196.75a1.6,1.6,0,0,1-.07.45,1.34,1.34,0,0,1-.24.45,1.33,1.33,0,0,1-.43.34,1.37,1.37,0,0,1-.65.14h-4.34a0.59,0.59,0,0,1-.23,0A0.56,0.56,0,0,1,196,198a0.55,0.55,0,0,1-.12-0.18,0.57,0.57,0,0,1,0-.23v-5.15a0.56,0.56,0,0,1,0-.22A0.57,0.57,0,0,1,196,192a0.55,0.55,0,0,1,.18-0.12,0.59,0.59,0,0,1,.23,0h3.82a1.54,1.54,0,0,1,.45.08,1.38,1.38,0,0,1,.45.24,1.31,1.31,0,0,1,.35.43,1.37,1.37,0,0,1,.14.65v0.22a2.4,2.4,0,0,1-.1.65,2.16,2.16,0,0,1-.33.66,2,2,0,0,1,.36.29,1.88,1.88,0,0,1,.3.39,2.08,2.08,0,0,1,.2.5,2.34,2.34,0,0,1,.08.61v0.22Zm-1.14-.22a1.08,1.08,0,0,0-.07-0.4,0.88,0.88,0,0,0-.2-0.31,0.85,0.85,0,0,0-.31-0.2,1.13,1.13,0,0,0-.4-0.07h-2.58v-1.15h2.06a1.13,1.13,0,0,0,.4-0.07,0.84,0.84,0,0,0,.5-0.5,1.11,1.11,0,0,0,.07-0.4v-0.22a0.21,0.21,0,0,0-.24-0.25H197v4h3.85l0.08,0a0.17,0.17,0,0,0,.06-0.07,0.33,0.33,0,0,0,0-.14v-0.21Z" transform="translate(-128.97 -161.25)" style="fill:#fff"/><path d="M209.16,196.28a2,2,0,0,1-.08.61,1.81,1.81,0,0,1-.23.48,1.49,1.49,0,0,1-.33.35,2.06,2.06,0,0,1-.39.24,2,2,0,0,1-.41.14,1.9,1.9,0,0,1-.39,0h-4.41V197h4.41a0.67,0.67,0,0,0,.51-0.19,0.73,0.73,0,0,0,.18-0.52,0.84,0.84,0,0,0,0-.29,0.66,0.66,0,0,0-.14-0.23,0.6,0.6,0,0,0-.22-0.15,0.75,0.75,0,0,0-.29-0.05H204.7a2.06,2.06,0,0,1-.6-0.1,1.79,1.79,0,0,1-.59-0.32,1.73,1.73,0,0,1-.46-0.58,2.16,2.16,0,0,1,0-1.74,1.76,1.76,0,0,1,1.05-.9,2.06,2.06,0,0,1,.6-0.1h3.89V193H204.7a0.65,0.65,0,0,0-.51.2,0.74,0.74,0,0,0-.18.52,0.72,0.72,0,0,0,.18.52,0.66,0.66,0,0,0,.51.19h2.64a2,2,0,0,1,.39.05,1.94,1.94,0,0,1,.41.14,2,2,0,0,1,.39.24,1.62,1.62,0,0,1,.33.35,1.72,1.72,0,0,1,.23.47A2,2,0,0,1,209.16,196.28Z" transform="translate(-128.97 -161.25)" style="fill:#fff"/><path d="M219.61,195.59a2.78,2.78,0,0,1-.2,1.06,2.52,2.52,0,0,1-.55.84,2.49,2.49,0,0,1-.83.55,2.76,2.76,0,0,1-1,.2h-1.55a2.78,2.78,0,0,1-1-.2,2.48,2.48,0,0,1-.84-0.55,2.52,2.52,0,0,1-.55-0.84,2.73,2.73,0,0,1-.2-1.06v-1.2a2.74,2.74,0,0,1,.2-1.06,2.47,2.47,0,0,1,1.39-1.38,2.72,2.72,0,0,1,1-.2H217a2.71,2.71,0,0,1,1,.2,2.47,2.47,0,0,1,1.38,1.38,2.79,2.79,0,0,1,.2,1.06v1.2Zm-1.14-1.2a1.68,1.68,0,0,0-.11-0.61,1.33,1.33,0,0,0-.77-0.77,1.66,1.66,0,0,0-.6-0.11h-1.55a1.66,1.66,0,0,0-.61.11,1.38,1.38,0,0,0-.47.3,1.34,1.34,0,0,0-.31.47,1.68,1.68,0,0,0-.11.61v1.2a1.68,1.68,0,0,0,.11.61,1.34,1.34,0,0,0,.31.47,1.38,1.38,0,0,0,.47.3,1.66,1.66,0,0,0,.61.11H217a1.66,1.66,0,0,0,.61-0.11,1.38,1.38,0,0,0,.47-0.3,1.34,1.34,0,0,0,.31-0.47,1.68,1.68,0,0,0,.11-0.61v-1.2Z" transform="translate(-128.97 -161.25)" style="fill:#fff"/><path d="M221.89,198.14h-1.14v-6.3h1.14v6.3Z" transform="translate(-128.97 -161.25)" style="fill:#fff"/><path d="M229,198.14H223.8a0.59,0.59,0,0,1-.23,0,0.55,0.55,0,0,1-.3-0.3,0.58,0.58,0,0,1,0-.23v-5.73h1.14V197H229v1.14Z" transform="translate(-128.97 -161.25)" style="fill:#fff"/><path d="M235.91,196.28a2,2,0,0,1-.08.61,1.81,1.81,0,0,1-.23.48,1.49,1.49,0,0,1-.33.35,2.06,2.06,0,0,1-.39.24,2,2,0,0,1-.41.14,1.9,1.9,0,0,1-.39,0h-4.41V197h4.41a0.67,0.67,0,0,0,.51-0.19,0.73,0.73,0,0,0,.18-0.52,0.84,0.84,0,0,0,0-.29,0.66,0.66,0,0,0-.14-0.23,0.6,0.6,0,0,0-.22-0.15,0.75,0.75,0,0,0-.29-0.05h-2.63a2.06,2.06,0,0,1-.6-0.1,1.79,1.79,0,0,1-.59-0.32,1.73,1.73,0,0,1-.46-0.58,2.16,2.16,0,0,1,0-1.74,1.76,1.76,0,0,1,1.05-.9,2.06,2.06,0,0,1,.6-0.1h3.89V193h-3.89a0.65,0.65,0,0,0-.51.2,0.74,0.74,0,0,0-.18.52,0.72,0.72,0,0,0,.18.52,0.66,0.66,0,0,0,.51.19h2.64a2,2,0,0,1,.39.05,1.94,1.94,0,0,1,.41.14,2,2,0,0,1,.39.24,1.62,1.62,0,0,1,.33.35,1.72,1.72,0,0,1,.23.47A2,2,0,0,1,235.91,196.28Z" transform="translate(-128.97 -161.25)" style="fill:#fff"/></svg>