<?xml version="1.0" encoding="utf-8"?>
<!-- Generator: Adobe Illustrator 19.2.1, SVG Export Plug-In . SVG Version: 6.00 Build 0)  -->
<svg version="1.1" id="Layer_1" xmlns="http://www.w3.org/2000/svg" xmlns:xlink="http://www.w3.org/1999/xlink" x="0px" y="0px"
	 viewBox="0 0 512 512" style="enable-background:new 0 0 512 512;" xml:space="preserve">
<style type="text/css">
	.st0{fill:#F0F8FF;}
</style>
<path class="st0" d="M475.5,164.5H372c-13.5,0-24.5-11-24.5-24.5V36.5C347.5,16.4,331.1,0,311,0H201c-20.1,0-36.5,16.4-36.5,36.5
	V140c0,13.5-11,24.5-24.5,24.5H36.5C16.4,164.5,0,180.9,0,201V311c0,20.1,16.4,36.5,36.5,36.5H140c13.5,0,24.5,11,24.5,24.5v103.4
	c0,20.1,16.4,36.5,36.5,36.5H311c20.1,0,36.5-16.4,36.5-36.5V372c0-13.5,11-24.5,24.5-24.5h103.4c20.1,0,36.5-16.4,36.5-36.5V201
	C512,180.9,495.6,164.5,475.5,164.5z"/>
</svg>
