<svg xmlns="http://www.w3.org/2000/svg" viewBox="0 0 356.27 63.48"><title>potency</title><rect width="180" height="15.5" style="fill:#6dc497"/><rect y="23.99" width="216" height="15.5" style="fill:#6dc497"/><rect y="47.99" width="288" height="15.5" style="fill:#6dc497"/><path d="M145.25,116.71h3a3.54,3.54,0,0,1,.67.07,1.8,1.8,0,0,1,.68.28,1.67,1.67,0,0,1,.52.61,2.2,2.2,0,0,1,.21,1,1.83,1.83,0,0,1-.58,1.45,2.44,2.44,0,0,1-1.66.51h-2.44v3.18h-0.44v-7.14Zm0.44,3.58h2.51a2,2,0,0,0,.81-0.15,1.47,1.47,0,0,0,.54-0.37,1.45,1.45,0,0,0,.29-0.51,1.83,1.83,0,0,0,.09-0.56,2.28,2.28,0,0,0-.06-0.48,1.45,1.45,0,0,0-.24-0.53,1.43,1.43,0,0,0-.5-0.43,1.83,1.83,0,0,0-.86-0.17h-2.57v3.2Z" transform="translate(0 -113.02)" style="fill:#fff"/><path d="M155,123.85h-0.38v-1.1h0a1.65,1.65,0,0,1-.29.52,1.89,1.89,0,0,1-1,.63,2.21,2.21,0,0,1-.59.08,2.32,2.32,0,0,1-.77-0.11,1.5,1.5,0,0,1-.52-0.29,1.41,1.41,0,0,1-.31-0.41,1.86,1.86,0,0,1-.17-0.46,2.71,2.71,0,0,1-.06-0.44q0-.22,0-0.37v-3.18h0.38V122a4.76,4.76,0,0,0,0,.49,1.45,1.45,0,0,0,.17.55,1.28,1.28,0,0,0,.44.46,1.49,1.49,0,0,0,.82.19,1.82,1.82,0,0,0,.77-0.16,1.67,1.67,0,0,0,.58-0.44,2,2,0,0,0,.37-0.68,2.85,2.85,0,0,0,.13-0.86v-2.78H155v5.14Z" transform="translate(0 -113.02)" style="fill:#fff"/><path d="M156.46,119.85h0a1.25,1.25,0,0,1,.25-0.47,1.79,1.79,0,0,1,.45-0.38,2.25,2.25,0,0,1,.59-0.25,2.39,2.39,0,0,1,.67-0.07v0.38a1.81,1.81,0,0,0-.69.06,1.66,1.66,0,0,0-.73.44,3.66,3.66,0,0,0-.25.29,1.4,1.4,0,0,0-.17.31,1.92,1.92,0,0,0-.11.38,3.32,3.32,0,0,0-.05.5v2.81h-0.38v-5.14h0.38v1.14Z" transform="translate(0 -113.02)" style="fill:#fff"/><path d="M158.88,121.33v0.06a3,3,0,0,0,.12.86,2.19,2.19,0,0,0,.36.72,1.69,1.69,0,0,0,.59.49,1.81,1.81,0,0,0,.83.18,1.76,1.76,0,0,0,1.22-.41,2.12,2.12,0,0,0,.62-1.12H163a2.3,2.3,0,0,1-.73,1.38,2.23,2.23,0,0,1-1.5.48,2.26,2.26,0,0,1-1-.21,2,2,0,0,1-.71-0.56,2.37,2.37,0,0,1-.42-0.84,3.76,3.76,0,0,1-.14-1,3.66,3.66,0,0,1,.15-1,2.6,2.6,0,0,1,.44-0.87,2.16,2.16,0,0,1,.73-0.6,2.2,2.2,0,0,1,1-.22,2.18,2.18,0,0,1,1,.2,2,2,0,0,1,.69.54,2.43,2.43,0,0,1,.43.8,3.19,3.19,0,0,1,.15,1s0,0.07,0,.12,0,0.08,0,.1h-4.16Zm3.78-.33a3.07,3.07,0,0,0-.14-0.79,2,2,0,0,0-.36-0.66,1.77,1.77,0,0,0-.57-0.45,1.68,1.68,0,0,0-.77-0.17,1.8,1.8,0,0,0-.81.18,1.84,1.84,0,0,0-.59.46,2.05,2.05,0,0,0-.37.67,3.11,3.11,0,0,0-.16.78h3.77Z" transform="translate(0 -113.02)" style="fill:#fff"/><path d="M173.25,120.28a4.57,4.57,0,0,1-.23,1.46,3.51,3.51,0,0,1-.67,1.19,3.09,3.09,0,0,1-1.06.79,3.68,3.68,0,0,1-2.87,0,3.08,3.08,0,0,1-1.07-.79,3.51,3.51,0,0,1-.67-1.19,4.78,4.78,0,0,1,0-2.93,3.52,3.52,0,0,1,.67-1.19,3.08,3.08,0,0,1,1.07-.79,3.68,3.68,0,0,1,2.87,0,3.1,3.1,0,0,1,1.06.79,3.52,3.52,0,0,1,.67,1.19A4.58,4.58,0,0,1,173.25,120.28Zm-6.35,0a4.13,4.13,0,0,0,.2,1.3,3.19,3.19,0,0,0,.58,1.06,2.76,2.76,0,0,0,2.18,1,2.77,2.77,0,0,0,1.25-.27,2.82,2.82,0,0,0,.92-0.73,3.19,3.19,0,0,0,.58-1.06,4.32,4.32,0,0,0,0-2.6,3.2,3.2,0,0,0-.58-1.06,2.83,2.83,0,0,0-.92-0.73,2.77,2.77,0,0,0-1.25-.27,2.76,2.76,0,0,0-2.18,1,3.2,3.2,0,0,0-.58,1.06A4.14,4.14,0,0,0,166.9,120.28Z" transform="translate(0 -113.02)" style="fill:#fff"/><path d="M174.21,117.74v-1h0.38v1h-0.38Zm0,6.11v-5.14h0.38v5.14h-0.38Z" transform="translate(0 -113.02)" style="fill:#fff"/><path d="M176.27,116.71v7.14h-0.38v-7.14h0.38Z" transform="translate(0 -113.02)" style="fill:#fff"/><path d="M184.55,118.87a3.53,3.53,0,0,1,.63-1.19,3,3,0,0,1,1.05-.82,3.71,3.71,0,0,1,2.95,0,3,3,0,0,1,1,.82,3.52,3.52,0,0,1,.63,1.19,4.84,4.84,0,0,1,0,2.82,3.47,3.47,0,0,1-.63,1.18,3.08,3.08,0,0,1-1,.81,3.71,3.71,0,0,1-2.95,0,3,3,0,0,1-1.05-.81,3.47,3.47,0,0,1-.63-1.18A4.84,4.84,0,0,1,184.55,118.87Zm0.63,2.56a3.07,3.07,0,0,0,.48,1,2.41,2.41,0,0,0,.83.71,2.57,2.57,0,0,0,1.22.27,2.54,2.54,0,0,0,1.21-.27,2.42,2.42,0,0,0,.83-0.71,3.07,3.07,0,0,0,.48-1,4.32,4.32,0,0,0,0-2.3,3.09,3.09,0,0,0-.48-1,2.43,2.43,0,0,0-.83-0.71,2.54,2.54,0,0,0-1.21-.27,2.57,2.57,0,0,0-1.22.27,2.42,2.42,0,0,0-.83.71,3.09,3.09,0,0,0-.48,1A4.35,4.35,0,0,0,185.17,121.42Z" transform="translate(0 -113.02)" style="fill:#fff"/><path d="M192.13,118.69l1.62,4.53h0l1.6-4.53H196l-1.93,5.16h-0.67l-2-5.16h0.7Z" transform="translate(0 -113.02)" style="fill:#fff"/><path d="M197.11,122.14a1.94,1.94,0,0,0,.3.66,1.74,1.74,0,0,0,.53.48,1.48,1.48,0,0,0,.77.19,1.53,1.53,0,0,0,1.08-.36,1.89,1.89,0,0,0,.54-1H201a2.51,2.51,0,0,1-.73,1.36,2.2,2.2,0,0,1-1.52.48,2.4,2.4,0,0,1-1.05-.22,1.94,1.94,0,0,1-.72-0.59,2.55,2.55,0,0,1-.42-0.87,3.92,3.92,0,0,1-.14-1,3.72,3.72,0,0,1,.14-1,2.67,2.67,0,0,1,.42-0.87,2.08,2.08,0,0,1,.72-0.62,2.24,2.24,0,0,1,1.05-.23,2,2,0,0,1,1.78.91,2.71,2.71,0,0,1,.39.93,4.11,4.11,0,0,1,.1,1.06h-4A2.79,2.79,0,0,0,197.11,122.14Zm3.12-1.92a1.9,1.9,0,0,0-.33-0.58,1.62,1.62,0,0,0-.51-0.41,1.46,1.46,0,0,0-.68-0.15,1.48,1.48,0,0,0-.69.15,1.61,1.61,0,0,0-.51.41,2,2,0,0,0-.34.59,2.89,2.89,0,0,0-.16.69h3.34A2.29,2.29,0,0,0,200.23,120.22Z" transform="translate(0 -113.02)" style="fill:#fff"/><path d="M202.41,118.69v1.21h0a2,2,0,0,1,.74-1,2,2,0,0,1,1.21-.31v0.63a1.9,1.9,0,0,0-.78.12,1.76,1.76,0,0,0-.61.38,1.73,1.73,0,0,0-.39.6,2,2,0,0,0-.14.75v2.75h-0.63v-5.16h0.58Z" transform="translate(0 -113.02)" style="fill:#fff"/><path d="M208.29,122.51a1.57,1.57,0,0,0,.91.84,1.91,1.91,0,0,0,.67.12,1.65,1.65,0,0,0,.73-0.16,1.71,1.71,0,0,0,.55-0.42,1.86,1.86,0,0,0,.35-0.61,2.19,2.19,0,0,0,.12-0.73,1.88,1.88,0,0,0-.13-0.72,1.84,1.84,0,0,0-.37-0.58,1.7,1.7,0,0,0-.57-0.39,1.82,1.82,0,0,0-.72-0.14,1.89,1.89,0,0,0-.89.21,1.77,1.77,0,0,0-.67.62h-0.54l0.68-3.63h3.5v0.58h-3.06l-0.45,2.32,0,0a1.73,1.73,0,0,1,.66-0.48,2.08,2.08,0,0,1,.82-0.17,2.53,2.53,0,0,1,1,.18,2.14,2.14,0,0,1,.74.5,2.21,2.21,0,0,1,.47.77,2.77,2.77,0,0,1,.17,1,2.33,2.33,0,0,1-.19.95,2.28,2.28,0,0,1-.52.75,2.35,2.35,0,0,1-.78.49,2.56,2.56,0,0,1-.94.18,2.72,2.72,0,0,1-.91-0.15,2.09,2.09,0,0,1-.72-0.42,2,2,0,0,1-.49-0.68,2.28,2.28,0,0,1-.19-0.9h0.63A1.7,1.7,0,0,0,208.29,122.51Z" transform="translate(0 -113.02)" style="fill:#fff"/><path d="M216.75,117.12a2.33,2.33,0,0,1,.74.85,3.78,3.78,0,0,1,.36,1.16,8.27,8.27,0,0,1,0,2.51,3.78,3.78,0,0,1-.36,1.16,2.28,2.28,0,0,1-.74.85,2.5,2.5,0,0,1-2.49,0,2.27,2.27,0,0,1-.75-0.85,3.72,3.72,0,0,1-.36-1.16,8.27,8.27,0,0,1,0-2.51,3.72,3.72,0,0,1,.36-1.16,2.31,2.31,0,0,1,.75-0.85A2.47,2.47,0,0,1,216.75,117.12Zm-2.21.5a2,2,0,0,0-.54.77,3.77,3.77,0,0,0-.25,1,8.3,8.3,0,0,0,0,2,3.83,3.83,0,0,0,.25,1,2,2,0,0,0,.54.77,1.64,1.64,0,0,0,1.92,0,2,2,0,0,0,.54-0.77,3.87,3.87,0,0,0,.25-1,8.3,8.3,0,0,0,0-2,3.81,3.81,0,0,0-.25-1,2,2,0,0,0-.54-0.77A1.64,1.64,0,0,0,214.54,117.63Z" transform="translate(0 -113.02)" style="fill:#fff"/><path d="M221.29,116.93a1.31,1.31,0,0,1,.5.4,1.72,1.72,0,0,1,.28.6,3.1,3.1,0,0,1,0,1.49,1.72,1.72,0,0,1-.28.6,1.3,1.3,0,0,1-.5.4,1.89,1.89,0,0,1-1.45,0,1.3,1.3,0,0,1-.5-0.4,1.72,1.72,0,0,1-.28-0.6,3.13,3.13,0,0,1,0-1.49,1.72,1.72,0,0,1,.28-0.6,1.31,1.31,0,0,1,.5-0.4A1.89,1.89,0,0,1,221.29,116.93Zm-1.25.44a1,1,0,0,0-.33.35,1.49,1.49,0,0,0-.17.47,2.82,2.82,0,0,0,0,.49,2.74,2.74,0,0,0,0,.49,1.44,1.44,0,0,0,.17.46,1,1,0,0,0,.33.34,0.93,0.93,0,0,0,.52.14,0.92,0.92,0,0,0,.52-0.14,1,1,0,0,0,.33-0.34,1.55,1.55,0,0,0,.17-0.46,2.5,2.5,0,0,0,0-.49,2.58,2.58,0,0,0,0-.49,1.6,1.6,0,0,0-.17-0.47,1,1,0,0,0-.33-0.35,0.92,0.92,0,0,0-.52-0.13A0.94,0.94,0,0,0,220,117.37Zm5.14-.77-4.52,7.58h-0.48l4.53-7.58h0.47Zm0.5,3.77a1.31,1.31,0,0,1,.5.4,1.72,1.72,0,0,1,.28.6,3.13,3.13,0,0,1,0,1.49,1.72,1.72,0,0,1-.28.6,1.26,1.26,0,0,1-.5.4,1.95,1.95,0,0,1-1.45,0,1.25,1.25,0,0,1-.49-0.4,1.71,1.71,0,0,1-.28-0.6,3.13,3.13,0,0,1,0-1.49,1.71,1.71,0,0,1,.28-0.6,1.3,1.3,0,0,1,.49-0.4A1.89,1.89,0,0,1,225.67,120.36Zm-1.25.44a1,1,0,0,0-.33.35,1.51,1.51,0,0,0-.17.47,2.92,2.92,0,0,0,0,.5,2.82,2.82,0,0,0,0,.49,1.46,1.46,0,0,0,.17.46,1,1,0,0,0,.33.34,0.94,0.94,0,0,0,.53.14,0.92,0.92,0,0,0,.51-0.14,1,1,0,0,0,.33-0.34,1.52,1.52,0,0,0,.17-0.46,2.5,2.5,0,0,0,0-.49,2.58,2.58,0,0,0,0-.5,1.57,1.57,0,0,0-.17-0.47,1,1,0,0,0-.33-0.35,0.92,0.92,0,0,0-.51-0.14A0.94,0.94,0,0,0,224.42,120.8Z" transform="translate(0 -113.02)" style="fill:#fff"/><path d="M235.56,116.71v0.58h-2.49v6.56h-0.68v-6.56h-2.48v-0.58h5.65Z" transform="translate(0 -113.02)" style="fill:#fff"/><path d="M236.91,116.71v3.1h4.24v-3.1h0.68v7.14h-0.68v-3.46h-4.24v3.46h-0.68v-7.14h0.68Z" transform="translate(0 -113.02)" style="fill:#fff"/><path d="M248.2,118.13a2,2,0,0,0-.5-0.54,2.25,2.25,0,0,0-.65-0.34,2.42,2.42,0,0,0-.75-0.11,2.57,2.57,0,0,0-1.22.27,2.42,2.42,0,0,0-.83.71,3.09,3.09,0,0,0-.48,1,4.35,4.35,0,0,0,0,2.3,3.07,3.07,0,0,0,.48,1,2.41,2.41,0,0,0,.83.71,2.57,2.57,0,0,0,1.22.27,2.18,2.18,0,0,0,.9-0.18,2.13,2.13,0,0,0,.69-0.49,2.52,2.52,0,0,0,.47-0.73,3,3,0,0,0,.23-0.9h0.68a3.86,3.86,0,0,1-.31,1.19,2.92,2.92,0,0,1-.62.9,2.63,2.63,0,0,1-.89.57,3.14,3.14,0,0,1-1.15.2,3.37,3.37,0,0,1-1.47-.31,3,3,0,0,1-1.05-.81,3.47,3.47,0,0,1-.63-1.18,4.84,4.84,0,0,1,0-2.82,3.53,3.53,0,0,1,.63-1.19,3,3,0,0,1,1.05-.82,3.57,3.57,0,0,1,2.47-.16,2.89,2.89,0,0,1,.88.45,2.6,2.6,0,0,1,.66.72,2.44,2.44,0,0,1,.33,1h-0.68A2.29,2.29,0,0,0,248.2,118.13Z" transform="translate(0 -113.02)" style="fill:#fff"/><path d="M219.55,143.2a3.53,3.53,0,0,1,.63-1.19,3,3,0,0,1,1.05-.82,3.71,3.71,0,0,1,2.95,0,3,3,0,0,1,1,.82,3.52,3.52,0,0,1,.63,1.19,4.84,4.84,0,0,1,0,2.82,3.47,3.47,0,0,1-.63,1.18,3.08,3.08,0,0,1-1,.81,3.71,3.71,0,0,1-2.95,0,3,3,0,0,1-1.05-.81,3.47,3.47,0,0,1-.63-1.18A4.84,4.84,0,0,1,219.55,143.2Zm0.63,2.56a3.07,3.07,0,0,0,.48,1,2.41,2.41,0,0,0,.83.71,2.57,2.57,0,0,0,1.22.27,2.54,2.54,0,0,0,1.21-.27,2.42,2.42,0,0,0,.83-0.71,3.07,3.07,0,0,0,.48-1,4.32,4.32,0,0,0,0-2.3,3.09,3.09,0,0,0-.48-1,2.43,2.43,0,0,0-.83-0.71,2.54,2.54,0,0,0-1.21-.27,2.57,2.57,0,0,0-1.22.27,2.42,2.42,0,0,0-.83.71,3.09,3.09,0,0,0-.48,1A4.35,4.35,0,0,0,220.17,145.76Z" transform="translate(0 -113.02)" style="fill:#fff"/><path d="M227.13,143l1.62,4.53h0l1.6-4.53H231l-1.93,5.16h-0.67l-2-5.16h0.7Z" transform="translate(0 -113.02)" style="fill:#fff"/><path d="M232.11,146.48a1.94,1.94,0,0,0,.3.66,1.74,1.74,0,0,0,.53.48,1.48,1.48,0,0,0,.77.19,1.53,1.53,0,0,0,1.08-.36,1.89,1.89,0,0,0,.54-1H236a2.51,2.51,0,0,1-.73,1.36,2.2,2.2,0,0,1-1.52.48,2.4,2.4,0,0,1-1.05-.22,1.94,1.94,0,0,1-.72-0.59,2.55,2.55,0,0,1-.42-0.87,3.92,3.92,0,0,1-.14-1,3.72,3.72,0,0,1,.14-1,2.67,2.67,0,0,1,.42-0.87,2.08,2.08,0,0,1,.72-0.62,2.24,2.24,0,0,1,1.05-.23,2,2,0,0,1,1.78.91,2.71,2.71,0,0,1,.39.93,4.11,4.11,0,0,1,.1,1.06h-4A2.79,2.79,0,0,0,232.11,146.48Zm3.12-1.92a1.9,1.9,0,0,0-.33-0.58,1.62,1.62,0,0,0-.51-0.41,1.46,1.46,0,0,0-.68-0.15,1.48,1.48,0,0,0-.69.15,1.61,1.61,0,0,0-.51.41,2,2,0,0,0-.34.59,2.89,2.89,0,0,0-.16.69h3.34A2.29,2.29,0,0,0,235.23,144.55Z" transform="translate(0 -113.02)" style="fill:#fff"/><path d="M237.41,143v1.21h0a2,2,0,0,1,.74-1,2,2,0,0,1,1.21-.31v0.63a1.9,1.9,0,0,0-.78.12,1.76,1.76,0,0,0-.61.38,1.73,1.73,0,0,0-.39.6,2,2,0,0,0-.14.75v2.75h-0.63V143h0.58Z" transform="translate(0 -113.02)" style="fill:#fff"/><path d="M246.12,142a1.4,1.4,0,0,0-1-.36,1.52,1.52,0,0,0-1,.31,2.09,2.09,0,0,0-.59.78,3.62,3.62,0,0,0-.28,1,8,8,0,0,0-.07,1h0a2.07,2.07,0,0,1,1.86-1.16,2.49,2.49,0,0,1,1,.18,2.12,2.12,0,0,1,.72.48,2.17,2.17,0,0,1,.46.74,2.6,2.6,0,0,1,.17.94,2.52,2.52,0,0,1-.17.95,2.18,2.18,0,0,1-1.24,1.24,2.54,2.54,0,0,1-1,.18,2.8,2.8,0,0,1-1.1-.2,1.72,1.72,0,0,1-.76-0.63,3.15,3.15,0,0,1-.45-1.15,8.78,8.78,0,0,1-.15-1.73c0-.14,0-0.32,0-0.55a4.65,4.65,0,0,1,.12-0.73,4.88,4.88,0,0,1,.25-0.78,2.67,2.67,0,0,1,.44-0.71,2.11,2.11,0,0,1,.69-0.52,2.21,2.21,0,0,1,1-.2,2.28,2.28,0,0,1,1.49.45,2,2,0,0,1,.66,1.38h-0.63A1.53,1.53,0,0,0,246.12,142Zm-1.79,2.29a1.61,1.61,0,0,0-.55.39,1.68,1.68,0,0,0-.34.59,2.23,2.23,0,0,0-.11.72,2.41,2.41,0,0,0,.1.7,1.53,1.53,0,0,0,.32.58,1.47,1.47,0,0,0,.54.38,2,2,0,0,0,.79.14,1.57,1.57,0,0,0,.68-0.15,1.69,1.69,0,0,0,.88-1,2,2,0,0,0,.12-0.69,2.22,2.22,0,0,0-.12-0.72,1.75,1.75,0,0,0-.33-0.59,1.54,1.54,0,0,0-.53-0.39,1.7,1.7,0,0,0-.72-0.15A1.78,1.78,0,0,0,244.33,144.3Z" transform="translate(0 -113.02)" style="fill:#fff"/><path d="M251.75,141.46a2.33,2.33,0,0,1,.74.85,3.78,3.78,0,0,1,.36,1.16,8.27,8.27,0,0,1,0,2.51,3.78,3.78,0,0,1-.36,1.16,2.28,2.28,0,0,1-.74.85,2.5,2.5,0,0,1-2.49,0,2.27,2.27,0,0,1-.75-0.85,3.72,3.72,0,0,1-.36-1.16,8.27,8.27,0,0,1,0-2.51,3.72,3.72,0,0,1,.36-1.16,2.31,2.31,0,0,1,.75-0.85A2.47,2.47,0,0,1,251.75,141.46Zm-2.21.5a2,2,0,0,0-.54.77,3.77,3.77,0,0,0-.25,1,8.3,8.3,0,0,0,0,2,3.83,3.83,0,0,0,.25,1,2,2,0,0,0,.54.77,1.64,1.64,0,0,0,1.92,0,2,2,0,0,0,.54-0.77,3.87,3.87,0,0,0,.25-1,8.3,8.3,0,0,0,0-2,3.81,3.81,0,0,0-.25-1,2,2,0,0,0-.54-0.77A1.64,1.64,0,0,0,249.54,142Z" transform="translate(0 -113.02)" style="fill:#fff"/><path d="M256.29,141.27a1.31,1.31,0,0,1,.5.4,1.72,1.72,0,0,1,.28.6,3.1,3.1,0,0,1,0,1.49,1.72,1.72,0,0,1-.28.6,1.3,1.3,0,0,1-.5.4,1.89,1.89,0,0,1-1.45,0,1.3,1.3,0,0,1-.5-0.4,1.72,1.72,0,0,1-.28-0.6,3.13,3.13,0,0,1,0-1.49,1.72,1.72,0,0,1,.28-0.6,1.31,1.31,0,0,1,.5-0.4A1.89,1.89,0,0,1,256.29,141.27Zm-1.25.44a1,1,0,0,0-.33.35,1.49,1.49,0,0,0-.17.47,2.82,2.82,0,0,0,0,.49,2.74,2.74,0,0,0,0,.49,1.44,1.44,0,0,0,.17.46,1,1,0,0,0,.33.34,0.93,0.93,0,0,0,.52.14,0.92,0.92,0,0,0,.52-0.14,1,1,0,0,0,.33-0.34,1.55,1.55,0,0,0,.17-0.46,2.5,2.5,0,0,0,0-.49,2.58,2.58,0,0,0,0-.49,1.6,1.6,0,0,0-.17-0.47,1,1,0,0,0-.33-0.35,0.92,0.92,0,0,0-.52-0.13A0.94,0.94,0,0,0,255,141.71Zm5.14-.77-4.52,7.58h-0.48l4.53-7.58h0.47Zm0.5,3.77a1.31,1.31,0,0,1,.5.4,1.72,1.72,0,0,1,.28.6,3.13,3.13,0,0,1,0,1.49,1.72,1.72,0,0,1-.28.6,1.26,1.26,0,0,1-.5.4,1.95,1.95,0,0,1-1.45,0,1.25,1.25,0,0,1-.49-0.4,1.71,1.71,0,0,1-.28-0.6,3.13,3.13,0,0,1,0-1.49,1.71,1.71,0,0,1,.28-0.6,1.3,1.3,0,0,1,.49-0.4A1.89,1.89,0,0,1,260.67,144.7Zm-1.25.44a1,1,0,0,0-.33.35,1.51,1.51,0,0,0-.17.47,2.92,2.92,0,0,0,0,.5,2.82,2.82,0,0,0,0,.49,1.46,1.46,0,0,0,.17.46,1,1,0,0,0,.33.34,0.94,0.94,0,0,0,.53.14,0.92,0.92,0,0,0,.51-0.14,1,1,0,0,0,.33-0.34,1.52,1.52,0,0,0,.17-0.46,2.5,2.5,0,0,0,0-.49,2.58,2.58,0,0,0,0-.5,1.57,1.57,0,0,0-.17-0.47,1,1,0,0,0-.33-0.35A0.92,0.92,0,0,0,260,145,0.94,0.94,0,0,0,259.42,145.14Z" transform="translate(0 -113.02)" style="fill:#fff"/><path d="M270.56,141v0.58h-2.49v6.56h-0.68v-6.56h-2.48V141h5.65Z" transform="translate(0 -113.02)" style="fill:#fff"/><path d="M271.91,141v3.1h4.24V141h0.68v7.14h-0.68v-3.46h-4.24v3.46h-0.68V141h0.68Z" transform="translate(0 -113.02)" style="fill:#fff"/><path d="M283.2,142.47a2,2,0,0,0-.5-0.54,2.25,2.25,0,0,0-.65-0.34,2.42,2.42,0,0,0-.75-0.11,2.57,2.57,0,0,0-1.22.27,2.42,2.42,0,0,0-.83.71,3.09,3.09,0,0,0-.48,1,4.35,4.35,0,0,0,0,2.3,3.07,3.07,0,0,0,.48,1,2.41,2.41,0,0,0,.83.71,2.57,2.57,0,0,0,1.22.27,2.18,2.18,0,0,0,.9-0.18,2.13,2.13,0,0,0,.69-0.49,2.52,2.52,0,0,0,.47-0.73,3,3,0,0,0,.23-0.9h0.68a3.86,3.86,0,0,1-.31,1.19,2.92,2.92,0,0,1-.62.9,2.63,2.63,0,0,1-.89.57,3.14,3.14,0,0,1-1.15.2,3.37,3.37,0,0,1-1.47-.31,3,3,0,0,1-1.05-.81,3.47,3.47,0,0,1-.63-1.18,4.84,4.84,0,0,1,0-2.82,3.53,3.53,0,0,1,.63-1.19,3,3,0,0,1,1.05-.82,3.57,3.57,0,0,1,2.47-.16,2.89,2.89,0,0,1,.88.45,2.6,2.6,0,0,1,.66.72,2.44,2.44,0,0,1,.33,1h-0.68A2.29,2.29,0,0,0,283.2,142.47Z" transform="translate(0 -113.02)" style="fill:#fff"/><path d="M291.55,167.2a3.53,3.53,0,0,1,.63-1.19,3,3,0,0,1,1.05-.82,3.71,3.71,0,0,1,2.95,0,3,3,0,0,1,1,.82,3.52,3.52,0,0,1,.63,1.19,4.84,4.84,0,0,1,0,2.82,3.47,3.47,0,0,1-.63,1.18,3.08,3.08,0,0,1-1,.81,3.71,3.71,0,0,1-2.95,0,3,3,0,0,1-1.05-.81,3.47,3.47,0,0,1-.63-1.18A4.84,4.84,0,0,1,291.55,167.2Zm0.63,2.56a3.07,3.07,0,0,0,.48,1,2.41,2.41,0,0,0,.83.71,2.57,2.57,0,0,0,1.22.27,2.54,2.54,0,0,0,1.21-.27,2.42,2.42,0,0,0,.83-0.71,3.07,3.07,0,0,0,.48-1,4.32,4.32,0,0,0,0-2.3,3.09,3.09,0,0,0-.48-1,2.43,2.43,0,0,0-.83-0.71,2.54,2.54,0,0,0-1.21-.27,2.57,2.57,0,0,0-1.22.27,2.42,2.42,0,0,0-.83.71,3.09,3.09,0,0,0-.48,1A4.35,4.35,0,0,0,292.17,169.76Z" transform="translate(0 -113.02)" style="fill:#fff"/><path d="M299.13,167l1.62,4.53h0l1.6-4.53H303l-1.93,5.16h-0.67l-2-5.16h0.7Z" transform="translate(0 -113.02)" style="fill:#fff"/><path d="M304.11,170.48a1.94,1.94,0,0,0,.3.66,1.74,1.74,0,0,0,.53.48,1.48,1.48,0,0,0,.77.19,1.53,1.53,0,0,0,1.08-.36,1.89,1.89,0,0,0,.54-1H308a2.51,2.51,0,0,1-.73,1.36,2.2,2.2,0,0,1-1.52.48,2.4,2.4,0,0,1-1.05-.22,1.94,1.94,0,0,1-.72-0.59,2.55,2.55,0,0,1-.42-0.87,3.92,3.92,0,0,1-.14-1,3.72,3.72,0,0,1,.14-1,2.67,2.67,0,0,1,.42-0.87,2.08,2.08,0,0,1,.72-0.62,2.24,2.24,0,0,1,1.05-.23,2,2,0,0,1,1.78.91,2.71,2.71,0,0,1,.39.93,4.11,4.11,0,0,1,.1,1.06h-4A2.79,2.79,0,0,0,304.11,170.48Zm3.12-1.92a1.9,1.9,0,0,0-.33-0.58,1.62,1.62,0,0,0-.51-0.41,1.46,1.46,0,0,0-.68-0.15,1.48,1.48,0,0,0-.69.15,1.61,1.61,0,0,0-.51.41,2,2,0,0,0-.34.59,2.89,2.89,0,0,0-.16.69h3.34A2.29,2.29,0,0,0,307.23,168.55Z" transform="translate(0 -113.02)" style="fill:#fff"/><path d="M309.41,167v1.21h0a2,2,0,0,1,.74-1,2,2,0,0,1,1.21-.31v0.63a1.9,1.9,0,0,0-.78.12,1.76,1.76,0,0,0-.61.38,1.73,1.73,0,0,0-.39.6,2,2,0,0,0-.14.75v2.75h-0.63V167h0.58Z" transform="translate(0 -113.02)" style="fill:#fff"/><path d="M318.76,167.85a1.56,1.56,0,0,1-.84.56v0a1.74,1.74,0,0,1,1.06.6,1.84,1.84,0,0,1,.37,1.19,2.12,2.12,0,0,1-.19.92,1.83,1.83,0,0,1-.52.66,2.26,2.26,0,0,1-.76.39,3.4,3.4,0,0,1-1.87,0,2.26,2.26,0,0,1-.77-0.39,1.83,1.83,0,0,1-.52-0.66,2.11,2.11,0,0,1-.19-0.92,2,2,0,0,1,.39-1.18,1.59,1.59,0,0,1,1-.61v0a1.61,1.61,0,0,1-.85-0.56,1.59,1.59,0,0,1-.29-1,1.56,1.56,0,0,1,.19-0.78,1.66,1.66,0,0,1,.48-0.54,2.13,2.13,0,0,1,.68-0.32,2.88,2.88,0,0,1,1.54,0,2.19,2.19,0,0,1,.68.32,1.63,1.63,0,0,1,.49.54,1.57,1.57,0,0,1,.18.78A1.59,1.59,0,0,1,318.76,167.85Zm-1.12,3.86a1.58,1.58,0,0,0,.57-0.29,1.38,1.38,0,0,0,.38-0.49,1.65,1.65,0,0,0,.14-0.7,1.45,1.45,0,0,0-.14-0.67,1.43,1.43,0,0,0-.39-0.48,1.65,1.65,0,0,0-.57-0.29,2.18,2.18,0,0,0-.68-0.08,2.32,2.32,0,0,0-.68.08,1.54,1.54,0,0,0-.57.28,1.44,1.44,0,0,0-.53,1.16,1.61,1.61,0,0,0,.14.69,1.38,1.38,0,0,0,.38.5,1.66,1.66,0,0,0,.57.29,2.34,2.34,0,0,0,.69.1A2.46,2.46,0,0,0,317.63,171.71Zm-0.13-3.6a1.34,1.34,0,0,0,.47-0.23,1.17,1.17,0,0,0,.33-0.41,1.3,1.3,0,0,0,.13-0.59,1.16,1.16,0,0,0-.12-0.53A1.06,1.06,0,0,0,318,166a1.5,1.5,0,0,0-.47-0.23,2.08,2.08,0,0,0-.59-0.08,2,2,0,0,0-.56.08,1.62,1.62,0,0,0-.48.23,1.12,1.12,0,0,0-.34.38,1.1,1.1,0,0,0-.12.53,1.28,1.28,0,0,0,.13.6,1.2,1.2,0,0,0,.34.41,1.34,1.34,0,0,0,.48.23,1.93,1.93,0,0,0,.55.06A1.85,1.85,0,0,0,317.5,168.11Z" transform="translate(0 -113.02)" style="fill:#fff"/><path d="M323.75,165.46a2.33,2.33,0,0,1,.74.85,3.78,3.78,0,0,1,.36,1.16,8.27,8.27,0,0,1,0,2.51,3.78,3.78,0,0,1-.36,1.16,2.28,2.28,0,0,1-.74.85,2.5,2.5,0,0,1-2.49,0,2.27,2.27,0,0,1-.75-0.85,3.72,3.72,0,0,1-.36-1.16,8.27,8.27,0,0,1,0-2.51,3.72,3.72,0,0,1,.36-1.16,2.31,2.31,0,0,1,.75-0.85A2.47,2.47,0,0,1,323.75,165.46Zm-2.21.5a2,2,0,0,0-.54.77,3.77,3.77,0,0,0-.25,1,8.3,8.3,0,0,0,0,2,3.83,3.83,0,0,0,.25,1,2,2,0,0,0,.54.77,1.64,1.64,0,0,0,1.92,0,2,2,0,0,0,.54-0.77,3.87,3.87,0,0,0,.25-1,8.3,8.3,0,0,0,0-2,3.81,3.81,0,0,0-.25-1,2,2,0,0,0-.54-0.77A1.64,1.64,0,0,0,321.54,166Z" transform="translate(0 -113.02)" style="fill:#fff"/><path d="M328.29,165.27a1.31,1.31,0,0,1,.5.4,1.72,1.72,0,0,1,.28.6,3.1,3.1,0,0,1,0,1.49,1.72,1.72,0,0,1-.28.6,1.3,1.3,0,0,1-.5.4,1.89,1.89,0,0,1-1.45,0,1.3,1.3,0,0,1-.5-0.4,1.72,1.72,0,0,1-.28-0.6,3.13,3.13,0,0,1,0-1.49,1.72,1.72,0,0,1,.28-0.6,1.31,1.31,0,0,1,.5-0.4A1.89,1.89,0,0,1,328.29,165.27Zm-1.25.44a1,1,0,0,0-.33.35,1.49,1.49,0,0,0-.17.47,2.82,2.82,0,0,0,0,.49,2.74,2.74,0,0,0,0,.49,1.44,1.44,0,0,0,.17.46,1,1,0,0,0,.33.34,0.93,0.93,0,0,0,.52.14,0.92,0.92,0,0,0,.52-0.14,1,1,0,0,0,.33-0.34,1.55,1.55,0,0,0,.17-0.46,2.5,2.5,0,0,0,0-.49,2.58,2.58,0,0,0,0-.49,1.6,1.6,0,0,0-.17-0.47,1,1,0,0,0-.33-0.35,0.92,0.92,0,0,0-.52-0.13A0.94,0.94,0,0,0,327,165.71Zm5.14-.77-4.52,7.58h-0.48l4.53-7.58h0.47Zm0.5,3.77a1.31,1.31,0,0,1,.5.4,1.72,1.72,0,0,1,.28.6,3.13,3.13,0,0,1,0,1.49,1.72,1.72,0,0,1-.28.6,1.26,1.26,0,0,1-.5.4,1.95,1.95,0,0,1-1.45,0,1.25,1.25,0,0,1-.49-0.4,1.71,1.71,0,0,1-.28-0.6,3.13,3.13,0,0,1,0-1.49,1.71,1.71,0,0,1,.28-0.6,1.3,1.3,0,0,1,.49-0.4A1.89,1.89,0,0,1,332.67,168.7Zm-1.25.44a1,1,0,0,0-.33.35,1.51,1.51,0,0,0-.17.47,2.92,2.92,0,0,0,0,.5,2.82,2.82,0,0,0,0,.49,1.46,1.46,0,0,0,.17.46,1,1,0,0,0,.33.34,0.94,0.94,0,0,0,.53.14,0.92,0.92,0,0,0,.51-0.14,1,1,0,0,0,.33-0.34,1.52,1.52,0,0,0,.17-0.46,2.5,2.5,0,0,0,0-.49,2.58,2.58,0,0,0,0-.5,1.57,1.57,0,0,0-.17-0.47,1,1,0,0,0-.33-0.35A0.92,0.92,0,0,0,332,169,0.94,0.94,0,0,0,331.42,169.14Z" transform="translate(0 -113.02)" style="fill:#fff"/><path d="M342.56,165v0.58h-2.49v6.56h-0.68v-6.56h-2.48V165h5.65Z" transform="translate(0 -113.02)" style="fill:#fff"/><path d="M343.91,165v3.1h4.24V165h0.68v7.14h-0.68v-3.46h-4.24v3.46h-0.68V165h0.68Z" transform="translate(0 -113.02)" style="fill:#fff"/><path d="M355.2,166.47a2,2,0,0,0-.5-0.54,2.25,2.25,0,0,0-.65-0.34,2.42,2.42,0,0,0-.75-0.11,2.57,2.57,0,0,0-1.22.27,2.42,2.42,0,0,0-.83.71,3.09,3.09,0,0,0-.48,1,4.35,4.35,0,0,0,0,2.3,3.07,3.07,0,0,0,.48,1,2.41,2.41,0,0,0,.83.71,2.57,2.57,0,0,0,1.22.27,2.18,2.18,0,0,0,.9-0.18,2.13,2.13,0,0,0,.69-0.49,2.52,2.52,0,0,0,.47-0.73,3,3,0,0,0,.23-0.9h0.68a3.86,3.86,0,0,1-.31,1.19,2.92,2.92,0,0,1-.62.9,2.63,2.63,0,0,1-.89.57,3.14,3.14,0,0,1-1.15.2,3.37,3.37,0,0,1-1.47-.31,3,3,0,0,1-1.05-.81,3.47,3.47,0,0,1-.63-1.18,4.84,4.84,0,0,1,0-2.82,3.53,3.53,0,0,1,.63-1.19,3,3,0,0,1,1.05-.82,3.57,3.57,0,0,1,2.47-.16,2.89,2.89,0,0,1,.88.45,2.6,2.6,0,0,1,.66.72,2.44,2.44,0,0,1,.33,1h-0.68A2.29,2.29,0,0,0,355.2,166.47Z" transform="translate(0 -113.02)" style="fill:#fff"/><path d="M167.11,141h3a3.54,3.54,0,0,1,.67.07,1.8,1.8,0,0,1,.68.28,1.67,1.67,0,0,1,.52.61,2.2,2.2,0,0,1,.21,1,1.83,1.83,0,0,1-.58,1.45A2.44,2.44,0,0,1,170,145h-2.44v3.18h-0.44V141Zm0.44,3.58h2.51a2,2,0,0,0,.81-0.15,1.47,1.47,0,0,0,.54-0.37,1.45,1.45,0,0,0,.29-0.51,1.83,1.83,0,0,0,.09-0.56,2.28,2.28,0,0,0-.06-0.48,1.45,1.45,0,0,0-.24-0.53,1.43,1.43,0,0,0-.5-0.43,1.83,1.83,0,0,0-.86-0.17h-2.57v3.2Z" transform="translate(0 -113.02)" style="fill:#fff"/><path d="M173.33,141v3.1h0a1.65,1.65,0,0,1,.29-0.52,1.89,1.89,0,0,1,.43-0.38,1.91,1.91,0,0,1,.54-0.24,2.21,2.21,0,0,1,.59-0.08,2.34,2.34,0,0,1,.77.11,1.5,1.5,0,0,1,.52.29,1.4,1.4,0,0,1,.31.4,1.89,1.89,0,0,1,.17.46,2.72,2.72,0,0,1,.06.44q0,0.22,0,.38v3.18h-0.38v-3.25q0-.19,0-0.48a1.46,1.46,0,0,0-.18-0.56,1.27,1.27,0,0,0-.44-0.46,1.5,1.5,0,0,0-.81-0.19,1.82,1.82,0,0,0-.78.16,1.69,1.69,0,0,0-.58.44,2,2,0,0,0-.37.68,2.85,2.85,0,0,0-.12.87v2.78H173V141h0.38Z" transform="translate(0 -113.02)" style="fill:#fff"/><path d="M177.9,145.61a3.38,3.38,0,0,1,.16-1,2.59,2.59,0,0,1,.46-0.85,2.16,2.16,0,0,1,.74-0.58,2.48,2.48,0,0,1,2,0,2.16,2.16,0,0,1,.74.58,2.6,2.6,0,0,1,.46.85,3.38,3.38,0,0,1,.16,1,3.42,3.42,0,0,1-.16,1,2.54,2.54,0,0,1-.46.85,2.18,2.18,0,0,1-.74.58,2.48,2.48,0,0,1-2,0,2.18,2.18,0,0,1-.74-0.58,2.53,2.53,0,0,1-.46-0.85A3.42,3.42,0,0,1,177.9,145.61Zm0.38,0a3,3,0,0,0,.13.88,2.39,2.39,0,0,0,.38.75,1.85,1.85,0,0,0,.62.53,2,2,0,0,0,1.7,0,1.84,1.84,0,0,0,.62-0.53,2.37,2.37,0,0,0,.38-0.75,3.06,3.06,0,0,0,0-1.77,2.38,2.38,0,0,0-.38-0.75,1.84,1.84,0,0,0-.62-0.52,1.95,1.95,0,0,0-1.7,0,1.85,1.85,0,0,0-.62.52,2.4,2.4,0,0,0-.38.75A3,3,0,0,0,178.28,145.61Z" transform="translate(0 -113.02)" style="fill:#fff"/><path d="M183.65,145.66v0.06a3,3,0,0,0,.12.86,2.2,2.2,0,0,0,.36.72,1.69,1.69,0,0,0,.59.49,1.81,1.81,0,0,0,.83.18,1.76,1.76,0,0,0,1.22-.41,2.12,2.12,0,0,0,.62-1.12h0.38a2.3,2.3,0,0,1-.74,1.38,2.23,2.23,0,0,1-1.5.48,2.26,2.26,0,0,1-1-.21,2,2,0,0,1-.71-0.56,2.39,2.39,0,0,1-.42-0.84,3.77,3.77,0,0,1-.14-1,3.66,3.66,0,0,1,.14-1,2.6,2.6,0,0,1,.44-0.87,2.16,2.16,0,0,1,.72-0.6,2.21,2.21,0,0,1,1-.22,2.18,2.18,0,0,1,1,.2,2,2,0,0,1,.69.54,2.43,2.43,0,0,1,.43.8,3.19,3.19,0,0,1,.14,1s0,0.07,0,.12,0,0.08,0,.1h-4.16Zm3.78-.33a3.09,3.09,0,0,0-.14-0.79,2,2,0,0,0-.36-0.66,1.77,1.77,0,0,0-.57-0.45,1.67,1.67,0,0,0-.77-0.17,1.8,1.8,0,0,0-.81.18,1.85,1.85,0,0,0-.59.46,2.05,2.05,0,0,0-.37.67,3.13,3.13,0,0,0-.16.78h3.77Z" transform="translate(0 -113.02)" style="fill:#fff"/><path d="M188.7,143h0.38v1.1h0a1.64,1.64,0,0,1,.29-0.52,1.89,1.89,0,0,1,.43-0.38,1.91,1.91,0,0,1,.54-0.24,2.21,2.21,0,0,1,.59-0.08,2.34,2.34,0,0,1,.76.11,1.5,1.5,0,0,1,.52.29,1.4,1.4,0,0,1,.31.4,1.85,1.85,0,0,1,.17.46,2.72,2.72,0,0,1,.06.44c0,0.14,0,.27,0,0.38v3.18h-0.38v-3.25a4.69,4.69,0,0,0,0-.48,1.45,1.45,0,0,0-.17-0.56,1.27,1.27,0,0,0-.44-0.46,1.5,1.5,0,0,0-.81-0.19,1.81,1.81,0,0,0-.78.16,1.7,1.7,0,0,0-.58.44,2,2,0,0,0-.37.68,2.87,2.87,0,0,0-.12.87v2.78H188.7V143Z" transform="translate(0 -113.02)" style="fill:#fff"/><path d="M194,142.07v-1h0.38v1H194Zm0,6.11V143h0.38v5.14H194Z" transform="translate(0 -113.02)" style="fill:#fff"/><path d="M197,145.48L195.09,143h0.53l1.61,2.15,1.62-2.15h0.49l-1.86,2.44,2,2.7H199l-1.76-2.41-1.8,2.41H195Z" transform="translate(0 -113.02)" style="fill:#fff"/><path d="M209.33,144.61a4.57,4.57,0,0,1-.23,1.46,3.51,3.51,0,0,1-.67,1.19,3.09,3.09,0,0,1-1.07.79,3.38,3.38,0,0,1-1.43.29,3.42,3.42,0,0,1-1.44-.29,3.08,3.08,0,0,1-1.07-.79,3.51,3.51,0,0,1-.67-1.19,4.77,4.77,0,0,1,0-2.93,3.52,3.52,0,0,1,.67-1.19,3.09,3.09,0,0,1,1.07-.79,3.42,3.42,0,0,1,1.44-.29,3.38,3.38,0,0,1,1.43.29,3.1,3.1,0,0,1,1.07.79,3.52,3.52,0,0,1,.67,1.19A4.58,4.58,0,0,1,209.33,144.61Zm-6.35,0a4.13,4.13,0,0,0,.2,1.3,3.19,3.19,0,0,0,.58,1.06,2.76,2.76,0,0,0,2.18,1,2.77,2.77,0,0,0,1.25-.27,2.83,2.83,0,0,0,.92-0.73,3.21,3.21,0,0,0,.58-1.06,4.32,4.32,0,0,0,0-2.6,3.22,3.22,0,0,0-.58-1.06,2.83,2.83,0,0,0-.92-0.73,2.77,2.77,0,0,0-1.25-.27,2.76,2.76,0,0,0-2.18,1,3.2,3.2,0,0,0-.58,1.06A4.14,4.14,0,0,0,203,144.61Z" transform="translate(0 -113.02)" style="fill:#fff"/><path d="M210.29,142.07v-1h0.38v1h-0.38Zm0,6.11V143h0.38v5.14h-0.38Z" transform="translate(0 -113.02)" style="fill:#fff"/><path d="M212.35,141v7.14H212V141h0.38Z" transform="translate(0 -113.02)" style="fill:#fff"/><path d="M232.35,165h0.51l2.26,3.14,2.31-3.14h0.5l-2.52,3.47,2.66,3.67h-0.53l-2.42-3.34-2.43,3.34h-0.52l2.68-3.67Z" transform="translate(0 -113.02)" style="fill:#fff"/><path d="M244.88,168.61a4.57,4.57,0,0,1-.23,1.46,3.51,3.51,0,0,1-.67,1.19,3.09,3.09,0,0,1-1.06.79,3.68,3.68,0,0,1-2.87,0,3.07,3.07,0,0,1-1.07-.79,3.51,3.51,0,0,1-.67-1.19,4.79,4.79,0,0,1,0-2.93A3.52,3.52,0,0,1,239,166a3.08,3.08,0,0,1,1.07-.79,3.68,3.68,0,0,1,2.87,0A3.09,3.09,0,0,1,244,166a3.52,3.52,0,0,1,.67,1.19A4.58,4.58,0,0,1,244.88,168.61Zm-6.35,0a4.13,4.13,0,0,0,.2,1.3,3.19,3.19,0,0,0,.58,1.06,2.76,2.76,0,0,0,2.18,1,2.77,2.77,0,0,0,1.25-.27,2.82,2.82,0,0,0,.92-0.73,3.17,3.17,0,0,0,.58-1.06,4.32,4.32,0,0,0,0-2.6,3.18,3.18,0,0,0-.58-1.06,2.82,2.82,0,0,0-.92-0.73,2.77,2.77,0,0,0-1.25-.27,2.76,2.76,0,0,0-2.18,1,3.2,3.2,0,0,0-.58,1.06A4.14,4.14,0,0,0,238.53,168.61Z" transform="translate(0 -113.02)" style="fill:#fff"/><path d="M245.66,171a1.45,1.45,0,0,1,.36-1,1.35,1.35,0,0,1,1-.38,1.33,1.33,0,0,1,.92.32,1.15,1.15,0,0,1,.36.9,1.24,1.24,0,0,1-.23.76,2.19,2.19,0,0,1-.59.54l-0.61.4a3.5,3.5,0,0,0-.67.53,1.05,1.05,0,0,0-.27.56h2.36v0.31h-2.73a1.64,1.64,0,0,1,.09-0.56,1.5,1.5,0,0,1,.25-0.44,2.18,2.18,0,0,1,.38-0.36l0.47-.33,0.56-.36a1.72,1.72,0,0,0,.47-0.46,1,1,0,0,0,.17-0.6,0.87,0.87,0,0,0-.26-0.67,1,1,0,0,0-.68-0.25,1,1,0,0,0-.79.31,1.25,1.25,0,0,0-.25.82h-0.34Z" transform="translate(0 -113.02)" style="fill:#fff"/><path d="M252.2,165h2.34a3.73,3.73,0,0,1,1.59.3,2.69,2.69,0,0,1,1,.8,3,3,0,0,1,.54,1.14,5.58,5.58,0,0,1,.16,1.32,4.94,4.94,0,0,1-.2,1.42,3.09,3.09,0,0,1-.6,1.14,2.85,2.85,0,0,1-1,.75,3.67,3.67,0,0,1-1.49.27H252.2V165Zm2.36,6.76a3.41,3.41,0,0,0,1-.16,2.43,2.43,0,0,0,.92-0.52,2.63,2.63,0,0,0,.67-1,4.06,4.06,0,0,0,.25-1.54,4.7,4.7,0,0,0-.14-1.25,3.09,3.09,0,0,0-.38-0.87,2,2,0,0,0-.54-0.56,2.7,2.7,0,0,0-.63-0.31,3,3,0,0,0-.65-0.15,5.62,5.62,0,0,0-.58,0h-1.83v6.38h1.92Z" transform="translate(0 -113.02)" style="fill:#fff"/><path d="M258.89,166.07v-1h0.38v1h-0.38Zm0,6.11V167h0.38v5.14h-0.38Z" transform="translate(0 -113.02)" style="fill:#fff"/><path d="M260.66,170.47a1.58,1.58,0,0,0,.16.63,1.51,1.51,0,0,0,.89.77,2,2,0,0,0,.65.1,3.48,3.48,0,0,0,.54,0,1.86,1.86,0,0,0,.53-0.17,1.09,1.09,0,0,0,.41-0.33,0.89,0.89,0,0,0,.16-0.54,0.81,0.81,0,0,0-.26-0.65,1.82,1.82,0,0,0-.66-0.34,6.63,6.63,0,0,0-.85-0.19,4.43,4.43,0,0,1-.85-0.23,1.74,1.74,0,0,1-.66-0.42,1.33,1.33,0,0,1-.09-1.44,1.27,1.27,0,0,1,.44-0.4,2,2,0,0,1,.59-0.21,3.4,3.4,0,0,1,.66-0.06,3,3,0,0,1,.75.09,1.62,1.62,0,0,1,.6.29,1.38,1.38,0,0,1,.4.51,1.76,1.76,0,0,1,.14.75h-0.38a1.44,1.44,0,0,0-.11-0.6,1.05,1.05,0,0,0-.32-0.4,1.39,1.39,0,0,0-.49-0.23,2.32,2.32,0,0,0-.6-0.08,2.84,2.84,0,0,0-.53.05,1.5,1.5,0,0,0-.47.17,1.06,1.06,0,0,0-.34.31,0.77,0.77,0,0,0-.14.46,0.79,0.79,0,0,0,.15.5,1.07,1.07,0,0,0,.39.31,2.72,2.72,0,0,0,.55.18l0.61,0.14q0.38,0.07.72,0.17a2,2,0,0,1,.58.26,1.18,1.18,0,0,1,.39.42,1.39,1.39,0,0,1,.14.66,1.17,1.17,0,0,1-.19.69,1.46,1.46,0,0,1-.48.44,2,2,0,0,1-.65.23,3.88,3.88,0,0,1-.69.06,2.77,2.77,0,0,1-.82-0.12,1.84,1.84,0,0,1-.65-0.35,1.65,1.65,0,0,1-.44-0.57,2,2,0,0,1-.17-0.79h0.38Z" transform="translate(0 -113.02)" style="fill:#fff"/><path d="M267.18,167.37h-1.12V171a1.41,1.41,0,0,0,.07.49,0.55,0.55,0,0,0,.22.27,0.76,0.76,0,0,0,.35.12,3.58,3.58,0,0,0,.47,0v0.33a3.56,3.56,0,0,1-.56,0,1.14,1.14,0,0,1-.49-0.15,0.88,0.88,0,0,1-.33-0.37,1.42,1.42,0,0,1-.1-0.69v-3.59h-1V167h1v-1.6h0.38V167h1.12v0.33Z" transform="translate(0 -113.02)" style="fill:#fff"/><path d="M268,166.07v-1h0.38v1H268Zm0,6.11V167h0.38v5.14H268Z" transform="translate(0 -113.02)" style="fill:#fff"/><path d="M270,165v7.14h-0.38V165H270Z" transform="translate(0 -113.02)" style="fill:#fff"/><path d="M271.71,165v7.14h-0.38V165h0.38Z" transform="translate(0 -113.02)" style="fill:#fff"/><path d="M276.33,171.16h0a1.6,1.6,0,0,1-.26.44,1.82,1.82,0,0,1-.42.36,2,2,0,0,1-.55.25,2.43,2.43,0,0,1-.68.09,2,2,0,0,1-1.27-.35,1.31,1.31,0,0,1-.45-1.1,1.29,1.29,0,0,1,.64-1.19,2,2,0,0,1,.61-0.23,6.05,6.05,0,0,1,.65-0.1l0.59,0a3.46,3.46,0,0,0,.64-0.1,0.82,0.82,0,0,0,.36-0.18,0.52,0.52,0,0,0,.15-0.3,2.87,2.87,0,0,0,0-.45,0.94,0.94,0,0,0-.08-0.39,0.87,0.87,0,0,0-.25-0.32,1.24,1.24,0,0,0-.44-0.22,2.36,2.36,0,0,0-.66-0.08,1.73,1.73,0,0,0-1.12.34,1.34,1.34,0,0,0-.46,1H273a1.68,1.68,0,0,1,.54-1.27,2.17,2.17,0,0,1,1.43-.42,2.06,2.06,0,0,1,1.36.36,1.2,1.2,0,0,1,.42,1v3c0,0.07,0,.15,0,0.22a0.78,0.78,0,0,0,0,.2,0.31,0.31,0,0,0,.1.15,0.32,0.32,0,0,0,.2.05l0.28,0v0.32a1.19,1.19,0,0,1-.31,0,0.91,0.91,0,0,1-.37-0.06,0.48,0.48,0,0,1-.21-0.16,0.59,0.59,0,0,1-.09-0.23,1.62,1.62,0,0,1,0-.29v-0.27Zm0-1.9a0.72,0.72,0,0,1-.42.23,5.32,5.32,0,0,1-.63.09l-0.64.06-0.56.08a1.63,1.63,0,0,0-.5.19,1,1,0,0,0-.37.35,1.09,1.09,0,0,0-.14.58,1,1,0,0,0,.36.85,1.6,1.6,0,0,0,1,.27,2,2,0,0,0,1-.23,1.84,1.84,0,0,0,.58-0.54,1.68,1.68,0,0,0,.25-0.59,2.57,2.57,0,0,0,.05-0.38v-1Z" transform="translate(0 -113.02)" style="fill:#fff"/><path d="M279.81,167.37h-1.12V171a1.41,1.41,0,0,0,.07.49,0.55,0.55,0,0,0,.22.27,0.76,0.76,0,0,0,.35.12,3.58,3.58,0,0,0,.47,0v0.33a3.56,3.56,0,0,1-.56,0,1.14,1.14,0,0,1-.49-0.15,0.88,0.88,0,0,1-.33-0.37,1.42,1.42,0,0,1-.1-0.69v-3.59h-1V167h1v-1.6h0.38V167h1.12v0.33Z" transform="translate(0 -113.02)" style="fill:#fff"/><path d="M280.51,169.66v0.06a3,3,0,0,0,.12.86,2.19,2.19,0,0,0,.36.72,1.69,1.69,0,0,0,.59.49,1.81,1.81,0,0,0,.83.18,1.76,1.76,0,0,0,1.22-.41,2.11,2.11,0,0,0,.62-1.12h0.38a2.3,2.3,0,0,1-.73,1.38,2.23,2.23,0,0,1-1.5.48,2.27,2.27,0,0,1-1-.21,2,2,0,0,1-.71-0.56,2.36,2.36,0,0,1-.42-0.84,3.74,3.74,0,0,1-.14-1,3.66,3.66,0,0,1,.15-1,2.6,2.6,0,0,1,.43-0.87,2.16,2.16,0,0,1,.73-0.6,2.2,2.2,0,0,1,1-.22,2.17,2.17,0,0,1,1,.2,2,2,0,0,1,.7.54,2.43,2.43,0,0,1,.42.8,3.19,3.19,0,0,1,.15,1s0,0.07,0,.12,0,0.08,0,.1h-4.16Zm3.78-.33a3,3,0,0,0-.14-0.79,2,2,0,0,0-.36-0.66,1.77,1.77,0,0,0-.57-0.45,1.68,1.68,0,0,0-.77-0.17,1.79,1.79,0,0,0-.81.18,1.83,1.83,0,0,0-.59.46,2.05,2.05,0,0,0-.37.67,3.09,3.09,0,0,0-.16.78h3.77Z" transform="translate(0 -113.02)" style="fill:#fff"/></svg>