<svg xmlns="http://www.w3.org/2000/svg" viewBox="0 0 4033.96 624.18"><title>Vector Smart Object1</title><path d="M3045.91,615.26c-11.49-4.51-22.91-9.2-34.35-13.83L2904,557.87c-6.09,13.72-13.23,26.82-22.76,38.51-24.84,30.47-56.31,50.27-95.25,56.38-61.74,9.67-112.41-10.73-151.25-59.44a142,142,0,0,1-30.46-75.79c-5.7-58.08,14.44-105.65,60-141.94,24.81-19.75,53.63-29.93,85.37-31.9a155.88,155.88,0,0,1,153.35,95.25c0.27,0.64.65,1.23,1,1.84h0c9.16-3.75,18.3-7.53,27.48-11.24q56.83-23,113.69-45.86c2.55-1,3.2-1.83,2-4.66a379.28,379.28,0,0,0-17.65-35.7c-0.37-.59-0.77-1.17-1.12-1.77A307.73,307.73,0,0,0,2962.85,263q-79-67.38-182.48-75a303.52,303.52,0,0,0-108.18,11.73c-61.35,17.9-112.33,51.61-153.34,100.54a337.31,337.31,0,0,0-30.13,43c-0.36.73-.68,1.49-1.08,2.19a311.79,311.79,0,0,0-26.1,247.81,324.13,324.13,0,0,0,27.23,62,346.64,346.64,0,0,0,27.89,40.34,312.26,312.26,0,0,0,477.55,8.89,324.89,324.89,0,0,0,35.32-49.22A361.41,361.41,0,0,0,3047.45,619C3048.34,616.94,3048.11,616.12,3045.91,615.26Z" transform="translate(-458 -187.19)" style="fill:#f1f8fd"/><path d="M4462.32,571.07q-29.65,28.95-73,28.95t-73-28.95q-29.65-28.95-29.64-72t29.64-72q29.64-28.95,73-28.95t73,28.95Q4492,456,4492,499.05T4462.32,571.07Zm-31.6-116.48q-16.78-18.46-41.25-18.46t-41.25,18.46q-16.78,18.46-16.78,44.61t16.78,44.47Q4365,562,4389.47,562t41.25-18.32q16.78-18.31,16.78-44.47T4430.72,454.59ZM4149.66,598.05h-66.84V402.57h69.08q52.29,0,80.26,25.59t28,71.17q0,45.59-27.27,72.15T4149.66,598.05Zm50.48-141.93q-16.09-15.52-49.36-15.52h-24.33V559.46h27.69q29.92,0,46-15.1t16.08-43.91Q4216.22,471.65,4200.14,456.13Zm-204.57,99.7h-81.94l-18.18,42.23H3849l84.46-195.48h42.23l84.46,195.48h-46.42Zm-40.83-95.09-24.61,56.77h48.94Zm-320.49,38.31q0,43.07-29.64,72t-73,28.95q-43.35,0-73-28.95t-29.64-72q0-43.06,29.64-72t73-28.95q43.35,0,73,28.95T3634.25,499.05ZM3573,454.59q-16.78-18.46-41.25-18.46t-41.25,18.46q-16.78,18.46-16.78,44.61t16.78,44.47Q3507.28,562,3531.75,562T3573,543.66q16.78-18.31,16.78-44.47T3573,454.59Zm-323.29,44.47q0,43.07-29.64,72t-73,28.95q-43.35,0-73-28.95t-29.64-72q0-43.06,29.64-72t73-28.95q43.35,0,73,28.95T3249.72,499.05Zm-61.25-44.47q-16.78-18.46-41.25-18.46T3106,454.59q-16.78,18.46-16.78,44.61T3106,543.66Q3122.75,562,3147.22,562t41.25-18.32q16.78-18.31,16.78-44.47T3188.47,454.59Zm141.79,104.59h83.34v38.87h-127V402.57h43.63V559.18Zm458.08,38.87L3745,535.69h-30.2v62.36h-43.63V402.57h74.11q45.58,0,65,15.38t19.44,49.5q0,47-37.2,60.69l49.5,69.92h-53.7Zm-11.47-152.14q-8.39-5.87-29.36-5.87h-32.72v57.89h31.88q22.37,0,30.48-7.27t8.11-23.07Q3785.26,451.8,3776.87,445.92Z" transform="translate(-458 -187.19)" style="fill:#f1f8fd;fill-rule:evenodd"/><path d="M775.74,526.51q38-14,38-62.06,0-34.89-19.88-50.62t-66.5-15.73H651.62V598h44.62V534.23h30.89L771.45,598h54.91ZM760,488.19q-8.3,7.44-31.17,7.44h-32.6v-59.2H729.7q21.45,0,30,6t8.58,22.17Q768.31,480.75,760,488.19Z" transform="translate(-458 -187.19)" style="fill:#f1f8fd;fill-rule:evenodd"/><path d="M595.71,416q-21-17.87-67.07-17.87H458V598h44.62V542.24h26.6q44.33,0,65.92-17.16t21.59-54.2Q616.73,433.85,595.71,416ZM563,494.62q-8,9-30.32,9h-30V436.42h25.45q22,0,32.46,7.29T571,468.31Q571,485.62,563,494.62Z" transform="translate(-458 -187.19)" style="fill:#f1f8fd;fill-rule:evenodd"/><path d="M1025.71,423.12q-30.32-29.6-74.65-29.6t-74.65,29.6q-30.32,29.6-30.32,73.65t30.32,73.64Q906.73,600,951.06,600t74.65-29.6q30.31-29.6,30.32-73.64T1025.71,423.12ZM993.39,542.38q-17.16,18.74-42.18,18.73T909,542.38q-17.16-18.73-17.16-45.47T909,451.29q17.16-18.88,42.19-18.88t42.18,18.88q17.16,18.88,17.16,45.62T993.39,542.38Z" transform="translate(-458 -187.19)" style="fill:#f1f8fd;fill-rule:evenodd"/><path d="M1246.5,424.27q-28.6-26.17-82.08-26.17h-70.64V598h68.35q57.2,0,85.09-27.17t27.88-73.79Q1275.1,450.44,1246.5,424.27ZM1213.75,543.1q-16.45,15.44-47,15.44h-28.31V437h24.88q34,0,50.48,15.87t16.45,45.33Q1230.19,527.66,1213.75,543.1Z" transform="translate(-458 -187.19)" style="fill:#f1f8fd;fill-rule:evenodd"/><path d="M1355.46,508.49q0,24,11.15,37.89t30,13.87q18.88,0,29.89-13.87t11-37.89V398.1h44.62V509.92q0,43.48-24,66.78T1396.64,600q-37.47,0-61.63-23.45t-24.17-66.64V398.1h44.62v110.4Z" transform="translate(-458 -187.19)" style="fill:#f1f8fd;fill-rule:evenodd"/><path d="M1621.44,393.52q49.19,0,82.37,37.47l-27.74,31.46q-21.17-26.31-52.62-26.31-25.17,0-43,16.44t-17.87,44.33q0,27.88,16.87,44.76t40.9,16.87q32.89,0,53.77-26l28.6,29.46q-34,38.33-80.22,38.32t-76.08-29.17q-29.89-29.17-29.89-73.64t30.46-74.22Q1577.39,393.52,1621.44,393.52Z" transform="translate(-458 -187.19)" style="fill:#f1f8fd;fill-rule:evenodd"/><polygon points="1423.98 250.66 1324.45 250.66 1324.45 291.84 1413.97 291.84 1413.97 329.88 1324.45 329.88 1324.45 371.35 1427.13 371.35 1427.13 410.82 1279.84 410.82 1279.84 210.9 1423.98 210.9 1423.98 250.66" style="fill:#f1f8fd;fill-rule:evenodd"/><path d="M2077.6,424.27q-28.6-26.17-82.08-26.17h-70.64V598h68.35q57.2,0,85.08-27.17t27.89-73.79Q2106.2,450.44,2077.6,424.27ZM2044.86,543.1q-16.45,15.44-47,15.44H1969.5V437h24.88q34,0,50.48,15.87t16.44,45.33Q2061.3,527.66,2044.86,543.1Z" transform="translate(-458 -187.19)" style="fill:#f1f8fd;fill-rule:evenodd"/><polygon points="1818.16 293.87 1818.16 372.28 1790.23 372.28 1790.23 247.16 1816.37 247.16 1877.77 327.7 1877.77 247.16 1905.69 247.16 1905.69 372.28 1877.77 372.28 1818.16 293.87" style="fill:#f1f8fd;fill-rule:evenodd"/><rect x="1731.52" y="247.16" width="27.92" height="125.12" style="fill:#f1f8fd"/><rect x="42.75" y="44.68" width="3931.44" height="51.32" style="fill:#f1f8fd"/><rect x="42.75" y="523.43" width="3931.44" height="51.32" style="fill:#f1f8fd"/></svg>