<svg xmlns="http://www.w3.org/2000/svg" viewBox="0 0 2000.17 1881.78"><title>Vector Smart Object1</title><path d="M1184,407c-2.79-3.06-6.51-2.11-9.89-2.11q-369.28-.07-738.55,0C357.24,549.18,204.38,647.17,28.62,647.17S-300,549.18-378.3,404.86q-213.4,0-426.8,0c-2,0-4,0-6,.07A6.31,6.31,0,0,0-816,407q0,219.71-.09,439.42c0,3.61.58,4.68,4.51,4.68q995.58-.16,1991.16,0c3.92,0,4.51-1.07,4.51-4.68Q1183.94,626.71,1184,407Z" transform="translate(816.09 760.89)" style="fill:#f1f8fd"/><path d="M1179.58-482.1q-995.58.16-1991.16,0c-3.92,0-4.51,1.07-4.51,4.68Q-815.94-257.71-816-38c3,3.17,6.85,2.1,10.39,2.11q213.66,0.08,427.31,0C-300-180.18-147.12-278.17,28.62-278.17s328.61,98,406.93,242.31q368.53,0,737.06,0c2.17,0,4.33,0,6.5-.07A6.33,6.33,0,0,0,1184-38q0-219.71.08-439.42C1184.09-481,1183.5-482.1,1179.58-482.1Z" transform="translate(816.09 760.89)" style="fill:#f1f8fd"/><path d="M412.29,340c-15.42-6.05-30.75-12.35-46.1-18.57L221.91,263c-8.17,18.41-17.76,36-30.54,51.68C158,355.61,115.8,382.19,63.54,390.37c-82.86,13-150.85-14.4-203-79.77-23.57-29.56-37.17-64-40.88-101.71C-188,130.95-160.93,67.11-99.76,18.41c33.3-26.51,72-40.17,114.56-42.81,91.73-5.7,172.64,48.64,205.79,127.83,0.36,0.86.87,1.65,1.31,2.48h0c12.29-5,24.56-10.1,36.87-15.08Q335,60,411.35,29.28c3.42-1.37,4.3-2.46,2.68-6.26a509,509,0,0,0-23.68-47.91c-0.5-.79-1-1.57-1.51-2.38a413,413,0,0,0-88-105.43Q194.88-223.11,55.94-233.3C6.67-237-41.78-231.41-89.24-217.56-171.57-193.53-240-148.3-295-82.64c-15.16,18.08-28.29,37.58-40.44,57.76-0.48,1-.91,2-1.45,2.94a413.83,413.83,0,0,0-53.37,176.08,415.55,415.55,0,0,0,18.35,156.47,435,435,0,0,0,36.54,83.25A465.18,465.18,0,0,0-298,448,415.8,415.8,0,0,0-170,553.7,417.88,417.88,0,0,0-6.18,601.8,413.81,413.81,0,0,0,84,599.41a412.41,412.41,0,0,0,100.45-26.85A417.47,417.47,0,0,0,342.89,459.93a436,436,0,0,0,47.4-66.05,485,485,0,0,0,24.06-48.77C415.54,342.31,415.23,341.2,412.29,340Z" transform="translate(816.09 760.89)" style="fill:#f1f8fd"/><path d="M1158.65,227.33q-19,18.53-46.72,18.53t-46.72-18.53q-19-18.53-19-46.09t19-46.09q19-18.53,46.72-18.53t46.72,18.53q19,18.53,19,46.09T1158.65,227.33Zm-20.23-74.55a35.41,35.41,0,0,0-52.81,0q-10.74,11.81-10.74,28.55t10.74,28.46a35.59,35.59,0,0,0,52.81,0q10.74-11.72,10.74-28.46T1138.42,152.77ZM958.53,244.6H915.75V119.48H960q33.47,0,51.37,16.38t17.9,45.56q0,29.18-17.45,46.18T958.53,244.6Zm32.31-90.84q-10.3-9.93-31.59-9.93H943.67V219.9h17.72q19.15,0,29.45-9.67t10.29-28.1Q1001.13,163.7,990.84,153.76ZM859.9,217.57H807.45l-11.63,27H766.1l54.06-125.12h27L901.25,244.6H871.53Zm-26.13-60.86L818,193h31.33ZM807.43-556.4H762.81v-78.94l-69.21-121h48.33L785.12-682l43.19-74.36h48.33l-69.21,121v78.94Zm-101.25,0H576.34V-756.31H621v160.16h85.23v39.75ZM628.63,181.24q0,27.57-19,46.09t-46.72,18.53q-27.75,0-46.72-18.53t-19-46.09q0-27.56,19-46.09t46.72-18.53q27.74,0,46.72,18.53T628.63,181.24Zm-39.2-28.46a35.41,35.41,0,0,0-52.8,0q-10.74,11.81-10.74,28.55t10.74,28.46a35.59,35.59,0,0,0,52.8,0q10.74-11.72,10.74-28.46T589.43,152.77ZM424.76-556.4H356.4V-756.31H427q53.48,0,82.08,26.17t28.6,72.79q0,46.62-27.89,73.79T424.76-556.4Zm51.62-145.15q-16.45-15.87-50.48-15.87H401v121.55h28.31q30.6,0,47-15.44t16.44-44.9Q492.83-685.67,476.38-701.54ZM382.51,181.24q0,27.57-19,46.09t-46.72,18.53q-27.75,0-46.72-18.53t-19-46.09q0-27.56,19-46.09t46.72-18.53q27.74,0,46.72,18.53T382.51,181.24Zm-39.2-28.46a35.41,35.41,0,0,0-52.81,0q-10.74,11.81-10.74,28.55t10.74,28.46a35.59,35.59,0,0,0,52.81,0q10.74-11.72,10.74-28.46T343.31,152.77ZM224.56-554.4q-37.47,0-61.63-23.45t-24.17-66.64V-756.31h44.62v110.4q0,24,11.15,37.89t30,13.87q18.88,0,29.89-13.87t11-37.89v-110.4h44.62v111.83q0,43.48-24,66.78T224.56-554.4Zm-225.65,0q-44.33,0-74.65-29.6t-30.32-73.64q0-44,30.32-73.64t74.65-29.6q44.33,0,74.65,29.6t30.32,73.64q0,44-30.32,73.64T-1.09-554.4ZM41.24-703.12Q24.08-722-.95-722t-42.18,18.88q-17.16,18.88-17.16,45.62T-43.13-612Q-26-593.29-.95-593.29T41.24-612Q58.4-630.75,58.4-657.5T41.24-703.12ZM-180.7-556.4L-225-620.18h-30.89v63.78h-44.62V-756.31h75.79q46.61,0,66.49,15.73T-138.37-690q0,48-38,62.06l50.62,71.5H-180.7ZM-192.42-712q-8.58-6-30-6h-33.46v59.2h32.6q22.88,0,31.17-7.44t8.29-23.6Q-183.84-706-192.42-712ZM-323.7,1047.1l50.62,71.5H-328l-44.33-63.78H-403.2v63.78h-44.62V918.69H-372q46.61,0,66.5,15.73T-285.66,985Q-285.66,1033.09-323.7,1047.1Zm-16-84.08q-8.58-6-30-6H-403.2v59.2h32.6q22.88,0,31.17-7.44t8.29-23.59Q-331.13,969-339.71,963ZM-357-629.33q-21.6,17.16-65.92,17.16h-26.6v55.77h-44.62V-756.31h70.64q46,0,67.07,17.88t21,54.91Q-335.42-646.48-357-629.33Zm-34.61-81.37Q-402.06-718-424.08-718h-25.45v67.21h30q22.31,0,30.32-9t8-26.31Q-381.18-703.4-391.62-710.7ZM-504.3,1045.67q-21.6,17.16-65.92,17.16h-26.6v55.77h-44.62V918.69h70.64q46,0,67.07,17.87t21,54.91Q-482.71,1028.52-504.3,1045.67Zm-34.61-81.37Q-549.35,957-571.37,957h-25.45v67.21h30q22.31,0,30.32-9t8-26.31Q-528.47,971.6-538.91,964.3Zm-67.17-798.1v78.4H-634V119.48h26.13l61.4,80.55V119.48h27.92V244.6h-27.92Zm-86.63-46.72h27.92V244.6h-27.92V119.48Zm544.33,794.63q44.33,0,74.65,29.6t30.32,73.64q0,44-30.32,73.64t-74.65,29.6q-44.33,0-74.65-29.6t-30.32-73.64q0-44,30.32-73.64T-148.38,914.11Zm-42,148.86q17.16,18.74,42.19,18.73T-106,1063q17.16-18.73,17.16-45.47T-106,971.88Q-123.21,953-148.23,953t-42.19,18.88q-17.16,18.88-17.16,45.62T-190.42,1063ZM147.06,944.86q28.6,26.17,28.6,72.79t-27.88,73.79q-27.88,27.17-85.08,27.17H-5.67V918.69H65Q118.45,918.69,147.06,944.86ZM38.95,957.58v121.55H67.26q30.6,0,47-15.44t16.44-44.9q0-29.45-16.44-45.33T63.83,957.58H38.95ZM256,1029.08q0,24,11.15,37.89t30,13.87q18.88,0,29.89-13.87t11-37.89V918.69h44.62v111.83q0,43.48-24,66.78t-61.49,23.31q-37.47,0-61.63-23.45t-24.17-66.64V918.69H256v110.4Zm178-809.36H487.4V244.6H406.14V119.48h27.92V219.72ZM522,914.11q49.19,0,82.37,37.47L576.63,983Q555.46,956.73,524,956.73q-25.17,0-43,16.44t-17.87,44.33q0,27.88,16.87,44.76t40.9,16.87q32.89,0,53.77-26l28.6,29.46q-34,38.33-80.22,38.32t-76.08-29.17Q417,1062.55,417,1018.07t30.46-74.22Q478,914.11,522,914.11ZM727.26,244.6l-27.74-39.92H680.18V244.6H652.26V119.48H699.7q29.17,0,41.62,9.85T753.75,161q0,30.07-23.81,38.84l31.68,44.75H727.26Zm-7.34-97.38q-5.37-3.76-18.79-3.76H680.18v37.05h20.41q14.32,0,19.51-4.65t5.19-14.77Q725.29,151,719.92,147.23Zm62.62,811.22H683v41.18h89.52v38H683v41.47H785.69v39.47H638.4V918.69H782.54v39.75Zm195.62-13.58q28.6,26.17,28.6,72.79t-27.89,73.79Q951,1118.61,893.8,1118.6H825.44V918.69h70.64Q949.56,918.69,978.17,944.86ZM870.06,957.58v121.55h28.31q30.6,0,47-15.44t16.45-44.9q0-29.45-16.45-45.33t-50.48-15.87H870.06Z" transform="translate(816.09 760.89)" style="fill:#f1f8fd;fill-rule:evenodd"/></svg>