<?xml version="1.0" encoding="utf-8"?>
<!-- Generator: Adobe Illustrator 19.2.1, SVG Export Plug-In . SVG Version: 6.00 Build 0)  -->
<svg version="1.1" id="Layer_1" xmlns="http://www.w3.org/2000/svg" xmlns:xlink="http://www.w3.org/1999/xlink" x="0px" y="0px"
	 viewBox="0 0 512 512" style="enable-background:new 0 0 512 512;" xml:space="preserve">
<style type="text/css">
	.st0{fill:#F0F8FF;}
</style>
<g>
	<circle class="st0" cx="152.6" cy="96.8" r="46.8"/>
	<circle class="st0" cx="359.4" cy="96.8" r="46.8"/>
	<path class="st0" d="M509.7,303.7l-0.7-0.3c0.5-2.6,0.7-5.3,0.7-8.1c0-25.9-21-46.8-46.8-46.8c-14.2,0-26.8,6.3-35.4,16.2l0,0l0,0
		c-2.7,3.1-5,6.6-6.9,10.4c-17.2,23.6-67.8,79-164.6,79c-96.8,0-147.4-55.4-164.6-79c-1.8-3.8-4.1-7.3-6.9-10.4l0,0l0,0
		c-8.6-9.9-21.3-16.2-35.4-16.2c-25.9,0-46.8,21-46.8,46.8c0,2.7,0.3,5.4,0.7,8.1l-0.7,0.3c0,0,0.7,2.3,2.3,6.2
		c1.1,3.5,2.7,6.8,4.6,9.8C27.8,356.5,89.5,443.5,256,443.5s228.2-87,246.8-123.7c1.9-3.1,3.4-6.4,4.6-9.8
		C509,306,509.7,303.7,509.7,303.7z"/>
</g>
</svg>
