<?xml version="1.0" encoding="utf-8"?>
<!-- Generator: Adobe Illustrator 19.2.1, SVG Export Plug-In . SVG Version: 6.00 Build 0)  -->
<svg version="1.1" id="Layer_1" xmlns="http://www.w3.org/2000/svg" xmlns:xlink="http://www.w3.org/1999/xlink" x="0px" y="0px"
	 viewBox="0 0 512 512" style="enable-background:new 0 0 512 512;" xml:space="preserve">
<style type="text/css">
	.st0{fill:#F0F8FF;}
</style>
<path class="st0" d="M384.4,250.2c-21.2-23.3-51.2-41.9-94.4-58.6c-16.3-6.3-39.2-15.8-50.2-26c-4.7-4.3-7-8-7-17.1
	c0-14.1,14.4-22.5,38.6-22.5c28.4,0,49.7,9.3,59.9,14.9l0,0c21.7,11.8,48.7,1.2,56.6-22.1l14.8-43.8c6.1-18-1.5-37.9-18-47.3l0,0
	c-29-16.4-68.6-25.5-111.4-25.5c-48.8,0-91.4,14.4-123.3,41.7c-32.7,28-50.8,67.4-50.8,110.8c0,38.8,13.8,72.4,40.9,99.7
	c22.2,22.3,53.1,40.4,94.7,55.2c52.3,20.2,52.3,33,52.3,45.3c0,12-5,17.6-8.7,20.7c-8,6.7-21.7,10.4-38.5,10.4
	c-25.6,0-53.7-7.9-75.3-21.2l0,0c-22.2-13.7-51.3-2.6-58.8,22.4l-13.6,45c-5,16.7,1.4,34.8,16,44.5l0,0
	c29.8,19.8,81.2,33.2,128,33.2c55.9,0,102.9-15.9,136.1-46c31.6-28.7,49-68.9,49-113.2C421.4,310.9,409,277.2,384.4,250.2z"/>
</svg>
