<?xml version="1.0" encoding="utf-8"?>
<!-- Generator: Adobe Illustrator 19.2.1, SVG Export Plug-In . SVG Version: 6.00 Build 0)  -->
<svg version="1.1" id="Layer_1" xmlns="http://www.w3.org/2000/svg" xmlns:xlink="http://www.w3.org/1999/xlink" x="0px" y="0px"
	 viewBox="0 0 512 512" style="enable-background:new 0 0 512 512;" xml:space="preserve">
<style type="text/css">
	.st0{fill:#F0F8FF;}
</style>
<g>
	<path class="st0" d="M299.3,170.8c-17.8-52.1-11.6-93.6-8.2-115.9c1-6.5,1.7-11.6,1.7-15.4c0-20.3-16.6-36.9-36.9-36.9
		c-20.3,0-36.9,16.6-36.9,36.9c0,3.9,0.8,9,1.7,15.5c3.3,22.3,9.4,63.8-8.2,115.9l-3.4,9.9h93.6L299.3,170.8z M229.8,165.7
		c14.9-50.8,9-90.9,5.7-113c-0.8-5.6-1.6-10.5-1.6-13.3c0-12.1,9.8-21.9,21.9-21.9s21.9,9.8,21.9,21.9c0,2.8-0.7,7.6-1.6,13.2
		c-3.3,22.1-9.3,62.2,5.7,113.1H229.8z"/>
	<path class="st0" d="M280.5,193.3h-49.1c-27.4,0-49.7,22.3-49.7,49.8v209.6h148.6V243.1C330.3,215.6,308,193.3,280.5,193.3z
		 M231.4,208.3h49.1c19.2,0,34.8,15.6,34.8,34.8v102.7c-24.9-1.3-35.1-9.9-46.7-19.7c-14.2-12-30.2-25.5-71.9-27v-56
		C196.7,223.9,212.3,208.3,231.4,208.3z"/>
	<path class="st0" d="M295.3,464.1h-78.6c-5.3,0-9.5,4.2-9.4,9.4c0,5.2,4.2,9.4,9.4,9.4h78.6c5.2,0,9.4-4.2,9.4-9.4
		S300.5,464.1,295.3,464.1z"/>
	<path class="st0" d="M275.2,492.6h-38.5c-5.3,0-9.5,4.3-9.5,9.5s4.2,9.5,9.5,9.5h38.5c5.2,0,9.5-4.2,9.5-9.5
		C284.7,496.9,280.5,492.6,275.2,492.6z"/>
</g>
</svg>
