<?xml version="1.0" encoding="utf-8"?>
<!-- Generator: Adobe Illustrator 19.2.1, SVG Export Plug-In . SVG Version: 6.00 Build 0)  -->
<svg version="1.1" id="Layer_1" xmlns="http://www.w3.org/2000/svg" xmlns:xlink="http://www.w3.org/1999/xlink" x="0px" y="0px"
	 viewBox="0 0 512 512" style="enable-background:new 0 0 512 512;" xml:space="preserve">
<style type="text/css">
	.st0{fill:#F0F8FF;}
</style>
<path class="st0" d="M475.9,346.5l-73.2-73.2c-9.5-9.5-9.5-25.1,0-34.6l73.2-73.2c14.2-14.2,14.2-37.4,0-51.6l-77.8-77.8
	c-14.2-14.2-37.4-14.2-51.6,0l-73.2,73.2c-9.5,9.5-25.1,9.5-34.6,0l-73.2-73.2c-14.2-14.2-37.4-14.2-51.6,0L36,113.9
	c-14.2,14.2-14.2,37.4,0,51.6l73.2,73.2c9.5,9.5,9.5,25.1,0,34.6l-73.1,73.1c-14.2,14.2-14.2,37.4,0,51.6l77.8,77.8
	c14.2,14.2,37.4,14.2,51.6,0l73.1-73.1c9.5-9.5,25.1-9.5,34.6,0l73.1,73.1c14.2,14.2,37.4,14.2,51.6,0l77.8-77.8
	C490.1,383.9,490.1,360.7,475.9,346.5z"/>
</svg>
